<?xml version="1.0" encoding="UTF-8"?><svg id="Layer_1" xmlns="http://www.w3.org/2000/svg" viewBox="0 0 251.607 24.696"><path d="M8.753,24.696c-1.775,0-3.317-.344-4.626-1.032-1.31-.688-2.325-1.675-3.045-2.962-.721-1.287-1.082-2.807-1.082-4.56,0-1.309.199-2.485.599-3.528s.982-1.931,1.748-2.663c.766-.732,1.691-1.292,2.779-1.681,1.087-.388,2.297-.583,3.628-.583.688,0,1.425.083,2.213.25.787.167,1.559.438,2.313.815.421.245.716.544.882.898.167.355.228.727.183,1.115s-.183.732-.416,1.032c-.233.299-.527.499-.882.599-.355.1-.754.039-1.198-.183-.422-.222-.86-.394-1.314-.516-.455-.122-.882-.183-1.281-.183-.666,0-1.254.105-1.764.316-.511.211-.938.511-1.281.898-.344.389-.611.871-.799,1.448-.189.578-.283,1.231-.283,1.964,0,1.464.361,2.624,1.082,3.478.721.854,1.736,1.281,3.045,1.281.399,0,.82-.055,1.265-.167.443-.111.887-.288,1.331-.532.444-.222.837-.277,1.182-.167.344.111.632.316.865.616.233.299.36.644.383,1.032.022.389-.05.76-.216,1.115-.167.355-.461.632-.882.832-.732.399-1.481.677-2.247.832-.766.155-1.493.233-2.18.233Z" fill="#FEFAF0"/><path d="M24.229,24.696c-1.753,0-3.273-.344-4.56-1.032-1.287-.688-2.291-1.669-3.012-2.946-.721-1.275-1.082-2.79-1.082-4.543,0-1.309.199-2.485.599-3.528.399-1.042.982-1.936,1.748-2.679.766-.743,1.686-1.309,2.762-1.697,1.076-.388,2.258-.583,3.545-.583,1.752,0,3.278.344,4.576,1.032,1.298.688,2.307,1.67,3.029,2.945.721,1.276,1.082,2.779,1.082,4.51,0,1.31-.206,2.496-.616,3.561-.411,1.065-.993,1.964-1.748,2.696-.754.732-1.664,1.292-2.729,1.681-1.065.388-2.263.583-3.594.583ZM24.229,20.968c.732,0,1.364-.171,1.897-.516.532-.344.954-.871,1.265-1.581.311-.709.466-1.608.466-2.696,0-1.619-.333-2.812-.999-3.578-.666-.766-1.542-1.148-2.629-1.148-.71,0-1.337.167-1.881.5-.544.333-.965.854-1.265,1.564-.299.71-.449,1.598-.449,2.663,0,1.643.333,2.852.999,3.628.666.777,1.531,1.165,2.596,1.165Z" fill="#FEFAF0"/><path d="M42.334,24.696c-1.42,0-2.668-.338-3.744-1.015s-1.913-1.659-2.512-2.946c-.599-1.287-.898-2.807-.898-4.56s.299-3.262.898-4.526,1.436-2.241,2.512-2.929c1.076-.688,2.324-1.032,3.744-1.032,1.287,0,2.43.311,3.428.932,1,.622,1.666,1.431,1.998,2.43h-.367V3.162c0-.843.211-1.476.633-1.897s1.043-.632,1.865-.632c.797,0,1.418.211,1.863.632.443.421.666,1.054.666,1.897v18.938c0,.821-.217,1.448-.65,1.88-.432.433-1.037.649-1.812.649-.822,0-1.449-.216-1.881-.649-.434-.433-.648-1.059-.648-1.88v-2.263l.365,1.298c-.311,1.087-.971,1.953-1.98,2.596-1.01.643-2.17.965-3.479.965ZM43.832,20.968c.732,0,1.365-.171,1.896-.516.533-.344.955-.871,1.266-1.581.311-.709.467-1.608.467-2.696,0-1.619-.334-2.812-1-3.578-.664-.766-1.541-1.148-2.629-1.148-.711,0-1.336.167-1.881.5-.543.333-.965.854-1.264,1.564-.301.71-.449,1.598-.449,2.663,0,1.643.332,2.852.998,3.628.666.777,1.531,1.165,2.596,1.165Z" fill="#FEFAF0"/><path d="M64.766,24.696c-1.93,0-3.589-.344-4.976-1.032-1.387-.688-2.452-1.669-3.195-2.946-.743-1.275-1.114-2.79-1.114-4.543,0-1.686.36-3.156,1.081-4.41.721-1.253,1.715-2.247,2.979-2.979,1.265-.732,2.695-1.098,4.293-1.098,1.22,0,2.302.194,3.245.583.942.388,1.758.943,2.446,1.664.688.721,1.209,1.598,1.564,2.629.354,1.032.532,2.18.532,3.444,0,.422-.133.738-.399.949-.267.211-.654.316-1.165.316h-10.417v-2.596h8.354l-.532.466c0-.91-.133-1.669-.399-2.28-.267-.61-.649-1.076-1.148-1.398-.499-.321-1.115-.482-1.847-.482-.821,0-1.521.189-2.097.566-.578.377-1.021.927-1.332,1.647-.311.721-.466,1.581-.466,2.579v.267c0,1.686.388,2.929,1.165,3.728.776.799,1.952,1.198,3.528,1.198.532,0,1.137-.066,1.813-.199.677-.133,1.325-.344,1.947-.633.532-.244.986-.321,1.364-.233.377.089.683.272.915.549.233.278.36.605.383.982.022.377-.062.749-.249,1.115-.189.366-.505.671-.949.916-.776.444-1.642.76-2.596.948-.954.188-1.864.283-2.729.283Z" fill="#FEFAF0"/><path d="M82.506,24.696c-1.775,0-3.317-.344-4.626-1.032-1.31-.688-2.325-1.675-3.046-2.962-.721-1.287-1.081-2.807-1.081-4.56,0-1.309.199-2.485.599-3.528s.982-1.931,1.747-2.663c.766-.732,1.692-1.292,2.779-1.681s2.297-.583,3.628-.583c.688,0,1.426.083,2.213.25.788.167,1.559.438,2.313.815.421.245.716.544.882.898.167.355.228.727.184,1.115-.045.388-.184.732-.416,1.032-.233.299-.527.499-.883.599-.354.1-.754.039-1.197-.183-.422-.222-.86-.394-1.315-.516-.455-.122-.882-.183-1.281-.183-.665,0-1.254.105-1.764.316-.511.211-.938.511-1.281.898-.345.389-.61.871-.799,1.448-.188.578-.283,1.231-.283,1.964,0,1.464.36,2.624,1.082,3.478.721.854,1.735,1.281,3.045,1.281.399,0,.821-.055,1.265-.167.444-.111.888-.288,1.332-.532.443-.222.837-.277,1.181-.167.344.111.633.316.866.616.232.299.36.644.382,1.032.022.389-.05.76-.216,1.115-.166.355-.461.632-.882.832-.732.399-1.481.677-2.247.832-.766.155-1.492.233-2.18.233Z" fill="#FEFAF0"/><path d="M95.951,24.696c-1.242,0-2.329-.228-3.262-.683-.932-.455-1.664-1.076-2.196-1.864-.532-.787-.799-1.691-.799-2.712,0-1.198.311-2.141.932-2.829.621-.688,1.625-1.187,3.013-1.498,1.386-.311,3.233-.466,5.541-.466h1.764v2.596h-1.73c-1.154,0-2.069.062-2.746.183-.677.123-1.17.333-1.48.632-.312.3-.466.694-.466,1.182,0,.599.216,1.098.648,1.498s1.049.599,1.848.599c.644,0,1.22-.144,1.73-.433.51-.288.909-.688,1.198-1.198.288-.51.433-1.12.433-1.831v-3.794c0-.976-.222-1.669-.666-2.08-.443-.41-1.209-.616-2.296-.616-.577,0-1.215.066-1.914.2-.699.133-1.47.377-2.313.732-.51.2-.948.245-1.314.133-.366-.111-.648-.327-.849-.649-.199-.321-.299-.682-.299-1.082s.11-.776.332-1.132c.222-.354.6-.621,1.132-.799,1.021-.399,1.991-.682,2.912-.849s1.759-.25,2.513-.25c1.709,0,3.123.25,4.244.749,1.12.499,1.952,1.27,2.496,2.313.543,1.043.815,2.363.815,3.96v7.389c0,.821-.206,1.448-.616,1.88-.411.433-.981.649-1.714.649-.755,0-1.337-.216-1.747-.649-.411-.433-.616-1.059-.616-1.88v-1.231l.233.233c-.134.732-.416,1.365-.849,1.897-.433.533-.977.949-1.631,1.248-.655.3-1.415.45-2.28.45Z" fill="#FEFAF0"/><path d="M122.515,3.987c-.44-.068-.889.025-1.266.262-.376.238-.654.603-.781,1.03-.207.799-.673,1.507-1.325,2.013-.653.506-1.454.781-2.28.782h-1.58c-.051,0-.099-.02-.134-.055-.035-.035-.055-.083-.055-.133v-2.363c0-.839-.216-1.469-.648-1.889-.432-.42-1.058-.631-1.88-.632-.796,0-1.409.21-1.841.631-.432.42-.646,1.051-.642,1.891v2.552h-1.459c-.597,0-1.067.153-1.409.46-.341.307-.513.76-.514,1.36,0,.596.172,1.057.514,1.381.343.324.813.484,1.409.48h1.459v6.267c0,1.481.243,2.709.729,3.683.485.972,1.287,1.75,2.273,2.205,1.023.499,2.302.748,3.836.747.423-.009.844-.047,1.26-.117.403-.056.802-.139,1.194-.249.21-.059.403-.164.567-.307.163-.143.293-.322.378-.522.176-.454.261-.939.249-1.426,0-.708-.102-1.168-.307-1.381-.1-.103-.223-.181-.357-.23-.135-.049-.28-.067-.422-.052-.252.007-.502.04-.746.1-.311.067-.628.101-.945.1-.951,0-1.636-.227-2.057-.68-.42-.453-.63-1.144-.629-2.073v-5.756c0-.081.032-.16.09-.217.058-.058.136-.09.217-.09h.603c1.994.017,3.941-.61,5.551-1.786,1.173-.879,2.04-1.96,2.269-3.003l.177-.697c.23-1.057-.438-2.118-1.498-2.285Z" fill="#FEFAF0"/><path d="M145.504,24.696c-1.775,0-3.317-.344-4.626-1.032-1.31-.688-2.325-1.675-3.046-2.962-.721-1.287-1.081-2.807-1.081-4.56,0-1.309.199-2.485.599-3.528s.982-1.931,1.747-2.663c.766-.732,1.692-1.292,2.779-1.681s2.297-.583,3.628-.583c.688,0,1.426.083,2.213.25.788.167,1.559.438,2.313.815.421.245.716.544.882.898.167.355.228.727.184,1.115-.045.388-.184.732-.416,1.032-.233.299-.527.499-.883.599-.354.1-.754.039-1.197-.183-.422-.222-.86-.394-1.315-.516-.455-.122-.882-.183-1.281-.183-.665,0-1.254.105-1.764.316-.511.211-.938.511-1.281.898-.345.389-.61.871-.799,1.448-.188.578-.283,1.231-.283,1.964,0,1.464.36,2.624,1.082,3.478.721.854,1.735,1.281,3.045,1.281.399,0,.821-.055,1.265-.167.444-.111.888-.288,1.332-.532.443-.222.837-.277,1.181-.167.344.111.633.316.866.616.232.299.36.644.382,1.032.022.389-.05.76-.216,1.115-.166.355-.461.632-.882.832-.732.399-1.481.677-2.247.832-.766.155-1.492.233-2.18.233Z" fill="#FEFAF0"/><path d="M160.98,24.696c-1.753,0-3.273-.344-4.56-1.032-1.287-.688-2.292-1.669-3.013-2.946-.721-1.275-1.081-2.79-1.081-4.543,0-1.309.199-2.485.599-3.528.399-1.042.982-1.936,1.747-2.679.766-.743,1.687-1.309,2.763-1.697s2.258-.583,3.545-.583c1.752,0,3.278.344,4.576,1.032,1.298.688,2.308,1.67,3.028,2.945.721,1.276,1.082,2.779,1.082,4.51,0,1.31-.205,2.496-.616,3.561-.41,1.065-.993,1.964-1.747,2.696-.754.732-1.664,1.292-2.729,1.681-1.065.388-2.264.583-3.595.583ZM160.98,20.968c.732,0,1.364-.171,1.896-.516.533-.344.954-.871,1.265-1.581.311-.709.467-1.608.467-2.696,0-1.619-.333-2.812-.999-3.578-.665-.766-1.542-1.148-2.629-1.148-.711,0-1.337.167-1.881.5-.544.333-.965.854-1.265,1.564-.3.71-.449,1.598-.449,2.663,0,1.643.333,2.852.998,3.628.666.777,1.531,1.165,2.597,1.165Z" fill="#FEFAF0"/><path d="M180.584,24.696c-1.753,0-3.273-.344-4.56-1.032-1.287-.688-2.292-1.669-3.013-2.946-.721-1.275-1.081-2.79-1.081-4.543,0-1.309.199-2.485.599-3.528.399-1.042.982-1.936,1.747-2.679.766-.743,1.687-1.309,2.763-1.697s2.258-.583,3.545-.583c1.752,0,3.278.344,4.576,1.032,1.298.688,2.308,1.67,3.028,2.945.721,1.276,1.082,2.779,1.082,4.51,0,1.31-.205,2.496-.616,3.561-.41,1.065-.993,1.964-1.747,2.696-.754.732-1.664,1.292-2.729,1.681-1.065.388-2.264.583-3.595.583ZM180.584,20.968c.732,0,1.364-.171,1.896-.516.533-.344.954-.871,1.265-1.581.311-.709.467-1.608.467-2.696,0-1.619-.333-2.812-.999-3.578-.665-.766-1.542-1.148-2.629-1.148-.711,0-1.337.167-1.881.5-.544.333-.965.854-1.265,1.564-.3.71-.449,1.598-.449,2.663,0,1.643.333,2.852.998,3.628.666.777,1.531,1.165,2.597,1.165Z" fill="#FEFAF0"/><path d="M194.828,24.629c-.777,0-1.387-.216-1.831-.649-.443-.433-.665-1.059-.665-1.88V3.162c0-.843.222-1.476.665-1.897.444-.421,1.054-.632,1.831-.632.82,0,1.447.211,1.88.632s.649,1.054.649,1.897v11.649h.066l4.826-5.359c.487-.577.932-1.003,1.331-1.281.399-.277.954-.416,1.664-.416s1.242.178,1.598.533c.354.355.538.782.549,1.281.012.499-.205,1.015-.648,1.548l-5.093,5.625v-1.897l5.658,6.523c.421.533.604,1.054.549,1.564-.056.511-.288.921-.698,1.231-.411.311-.915.466-1.515.466-.755,0-1.359-.139-1.813-.416-.455-.277-.916-.704-1.382-1.281l-5.025-5.625h-.066v4.792c0,1.687-.844,2.529-2.529,2.529Z" fill="#FEFAF0"/><path d="M213.399,5.059c-.91,0-1.609-.222-2.097-.666-.488-.444-.732-1.076-.732-1.897,0-.799.244-1.415.732-1.847.487-.433,1.187-.649,2.097-.649.932,0,1.647.217,2.146.649s.749,1.048.749,1.847c0,.821-.25,1.453-.749,1.897s-1.215.666-2.146.666ZM213.399,24.629c-.777,0-1.387-.239-1.831-.715-.443-.477-.665-1.148-.665-2.014v-11.416c0-.887.222-1.558.665-2.013.444-.455,1.054-.683,1.831-.683.82,0,1.447.228,1.88.683.433.455.649,1.126.649,2.013v11.416c0,.865-.211,1.537-.633,2.014-.421.477-1.054.715-1.896.715Z" fill="#FEFAF0"/><path d="M228.308,24.696c-1.93,0-3.589-.344-4.976-1.032-1.387-.688-2.452-1.669-3.195-2.946-.743-1.275-1.114-2.79-1.114-4.543,0-1.686.36-3.156,1.081-4.41.721-1.253,1.715-2.247,2.979-2.979,1.265-.732,2.695-1.098,4.293-1.098,1.22,0,2.302.194,3.245.583.942.388,1.758.943,2.446,1.664.688.721,1.209,1.598,1.564,2.629.354,1.032.532,2.18.532,3.444,0,.422-.133.738-.399.949-.267.211-.654.316-1.165.316h-10.417v-2.596h8.354l-.532.466c0-.91-.133-1.669-.399-2.28-.267-.61-.649-1.076-1.148-1.398-.499-.321-1.115-.482-1.847-.482-.821,0-1.521.189-2.097.566-.578.377-1.021.927-1.332,1.647-.311.721-.466,1.581-.466,2.579v.267c0,1.686.388,2.929,1.165,3.728.776.799,1.952,1.198,3.528,1.198.532,0,1.137-.066,1.813-.199.677-.133,1.325-.344,1.947-.633.532-.244.986-.321,1.364-.233.377.089.683.272.915.549.233.278.36.605.383.982.022.377-.062.749-.249,1.115-.189.366-.505.671-.949.916-.776.444-1.642.76-2.596.948-.954.188-1.864.283-2.729.283Z" fill="#FEFAF0"/><path d="M244.351,24.696c-.954,0-1.953-.083-2.995-.25-1.044-.166-1.976-.46-2.796-.882-.466-.222-.794-.504-.982-.849-.188-.344-.271-.699-.249-1.065.021-.366.138-.688.35-.965.21-.277.487-.466.832-.566.344-.1.727-.061,1.148.117.909.377,1.747.644,2.513.799.765.155,1.503.233,2.213.233.932,0,1.619-.155,2.063-.466.443-.311.666-.71.666-1.198,0-.421-.145-.737-.433-.949-.289-.21-.711-.371-1.265-.482l-3.528-.632c-1.354-.266-2.402-.776-3.146-1.531-.743-.754-1.114-1.73-1.114-2.929,0-1.131.31-2.097.932-2.896.621-.799,1.48-1.415,2.579-1.847s2.347-.649,3.744-.649c.999,0,1.914.089,2.746.266.832.178,1.647.478,2.446.899.399.178.683.433.849.765.166.333.216.677.149,1.032-.066.355-.205.671-.416.949-.211.278-.488.466-.832.566-.344.1-.749.05-1.215-.15-.71-.288-1.364-.504-1.963-.649-.6-.144-1.154-.216-1.665-.216-1.021,0-1.759.155-2.213.466-.455.311-.683.71-.683,1.198,0,.377.134.694.399.948.267.255.666.428,1.198.516l3.528.599c1.42.266,2.507.76,3.262,1.481.754.721,1.132,1.692,1.132,2.912,0,1.731-.661,3.068-1.98,4.011-1.32.943-3.079,1.415-5.275,1.415Z" fill="#FEFAF0"/></svg>