<?xml version="1.0" encoding="UTF-8"?><svg id="Layer_5" xmlns="http://www.w3.org/2000/svg" width="166.263" height="166.263" viewBox="0 0 166.263 166.263"><path d="M165.253,163.592v-8.617c-4.711-1.186-8.158-4.864-8.158-9.211s3.446-8.025,8.158-9.211v-6.299c-4.711-1.186-8.158-4.864-8.158-9.211s3.446-8.025,8.158-9.211v-6.299c-4.711-1.186-8.158-4.864-8.158-9.211s3.446-8.025,8.158-9.211v-6.299c-4.711-1.186-8.158-4.864-8.158-9.211s3.446-8.025,8.158-9.211v-6.299c-4.711-1.186-8.158-4.864-8.158-9.211s3.446-8.025,8.158-9.211v-6.299c-4.711-1.186-8.158-4.864-8.158-9.211s3.446-8.025,8.158-9.211V4.33c0-.827-.673-1.5-1.5-1.5h-8.527c-1.069,4.923-4.828,8.576-9.302,8.576s-8.233-3.653-9.302-8.576h-6.118c-1.069,4.923-4.828,8.576-9.302,8.576s-8.233-3.653-9.302-8.576h-6.118c-1.069,4.923-4.828,8.576-9.301,8.576s-8.233-3.653-9.302-8.576h-6.118c-1.069,4.923-4.828,8.576-9.301,8.576s-8.233-3.653-9.302-8.576h-6.118c-1.069,4.923-4.828,8.576-9.302,8.576s-8.233-3.653-9.302-8.576h-6.118c-1.069,4.923-4.828,8.576-9.302,8.576S14.086,7.753,13.017,2.83H4.49c-.827,0-1.5.673-1.5,1.5v8.335c5.476.707,9.688,4.689,9.688,9.493s-4.212,8.786-9.688,9.494v5.735c5.476.707,9.688,4.689,9.688,9.493s-4.212,8.786-9.688,9.494v5.735c5.476.707,9.688,4.689,9.688,9.493s-4.212,8.786-9.688,9.494v5.735c5.476.707,9.688,4.689,9.688,9.493s-4.212,8.786-9.688,9.494v5.735c5.476.707,9.688,4.689,9.688,9.493s-4.212,8.786-9.688,9.494v5.735c5.476.707,9.688,4.689,9.688,9.493s-4.212,8.786-9.688,9.494v8.335c0,.827.673,1.5,1.5,1.5h8.451c.963-5.098,4.798-8.923,9.377-8.923s8.414,3.824,9.377,8.923h5.967c.963-5.098,4.798-8.923,9.377-8.923s8.414,3.824,9.377,8.923h5.967c.963-5.098,4.798-8.923,9.377-8.923s8.414,3.824,9.377,8.923h5.967c.963-5.098,4.798-8.923,9.377-8.923s8.414,3.824,9.377,8.923h5.967c.963-5.098,4.798-8.923,9.377-8.923s8.414,3.824,9.377,8.923h5.967c.963-5.098,4.798-8.923,9.377-8.923s8.414,3.824,9.377,8.923h8.451c.827,0,1.5-.673,1.5-1.5Z" fill="#fefaf0"/><path d="M162.763,166.263h-10.108l-.308-1.629c-.799-4.227-3.916-7.294-7.412-7.294s-6.613,3.067-7.412,7.294l-.308,1.629h-9.282l-.308-1.629c-.799-4.227-3.915-7.294-7.411-7.294s-6.614,3.067-7.413,7.294l-.308,1.629h-9.281l-.308-1.629c-.799-4.227-3.916-7.294-7.412-7.294s-6.613,3.067-7.412,7.294l-.308,1.629h-9.282l-.308-1.629c-.799-4.227-3.915-7.294-7.411-7.294s-6.614,3.067-7.413,7.294l-.308,1.629h-9.281l-.308-1.629c-.799-4.227-3.916-7.294-7.412-7.294s-6.613,3.067-7.412,7.294l-.308,1.629h-9.282l-.308-1.629c-.799-4.227-3.915-7.294-7.411-7.294s-6.614,3.067-7.413,7.294l-.308,1.629H3.5c-1.93,0-3.5-1.57-3.5-3.5v-10.094l1.744-.225c4.528-.585,7.943-3.813,7.943-7.51s-3.415-6.925-7.943-7.51l-1.744-.225v-9.251l1.743-.226c4.529-.586,7.944-3.814,7.944-7.511s-3.415-6.924-7.944-7.51l-1.743-.226v-9.251l1.744-.225c4.528-.585,7.943-3.813,7.943-7.51s-3.415-6.925-7.943-7.51l-1.744-.225v-9.251l1.743-.226c4.529-.586,7.944-3.814,7.944-7.511s-3.415-6.924-7.944-7.51l-1.743-.226v-9.251l1.744-.225c4.528-.585,7.943-3.813,7.943-7.51s-3.415-6.925-7.943-7.51l-1.744-.225v-9.251l1.743-.226c4.529-.586,7.944-3.814,7.944-7.511s-3.415-6.924-7.944-7.51l-1.743-.226V3.5C0,1.57,1.57,0,3.5,0h10.139l.342,1.575c.896,4.122,3.917,7.001,7.349,7.001s6.452-2.879,7.347-7l.342-1.576h9.343l.342,1.575c.896,4.122,3.917,7.001,7.348,7.001s6.452-2.879,7.348-7.001l.342-1.575h9.342l.342,1.575c.896,4.122,3.917,7.001,7.349,7.001s6.452-2.879,7.347-7l.342-1.576h9.343l.342,1.575c.896,4.122,3.917,7.001,7.348,7.001s6.452-2.879,7.348-7.001l.342-1.575h9.342l.342,1.575c.896,4.122,3.917,7.001,7.349,7.001s6.452-2.879,7.347-7l.342-1.576h9.343l.342,1.575c.896,4.122,3.917,7.001,7.348,7.001s6.452-2.879,7.348-7.001l.342-1.575h10.139c1.93,0,3.5,1.57,3.5,3.5v10.176l-1.512.381c-3.913.985-6.646,3.976-6.646,7.271s2.732,6.287,6.646,7.272l1.512.381v9.416l-1.512.381c-3.913.984-6.646,3.975-6.646,7.271s2.732,6.287,6.646,7.271l1.512.381v9.416l-1.512.381c-3.913.985-6.646,3.976-6.646,7.271s2.732,6.287,6.646,7.272l1.512.381v9.416l-1.512.381c-3.913.984-6.646,3.975-6.646,7.271s2.732,6.287,6.646,7.271l1.512.381v9.416l-1.512.381c-3.913.985-6.646,3.976-6.646,7.271s2.732,6.287,6.646,7.272l1.512.381v9.416l-1.512.381c-3.913.984-6.646,3.975-6.646,7.271s2.732,6.287,6.646,7.271l1.512.381v10.176c0,1.93-1.57,3.5-3.5,3.5ZM155.873,162.263h6.39v-6.646c-4.873-1.805-8.157-6.018-8.157-10.683s3.284-8.878,8.157-10.683v-3.356c-4.873-1.806-8.157-6.019-8.157-10.683s3.284-8.876,8.157-10.682v-3.356c-4.873-1.805-8.157-6.018-8.157-10.683s3.284-8.878,8.157-10.683v-3.356c-4.873-1.806-8.157-6.019-8.157-10.683s3.284-8.876,8.157-10.682v-3.356c-4.873-1.805-8.157-6.018-8.157-10.683s3.284-8.878,8.157-10.683v-3.356c-4.873-1.806-8.157-6.019-8.157-10.683s3.284-8.876,8.157-10.682v-6.646h-6.504c-1.709,5.122-5.978,8.576-10.824,8.576s-9.115-3.454-10.824-8.576h-3.073c-1.708,5.122-5.976,8.576-10.823,8.576s-9.116-3.454-10.825-8.576h-3.072c-1.709,5.122-5.978,8.576-10.824,8.576s-9.115-3.454-10.824-8.576h-3.073c-1.708,5.122-5.976,8.576-10.823,8.576s-9.116-3.454-10.825-8.576h-3.072c-1.709,5.122-5.978,8.576-10.824,8.576s-9.115-3.454-10.824-8.576h-3.073c-1.708,5.122-5.976,8.576-10.823,8.576s-9.116-3.454-10.825-8.576h-6.504v6.183c5.63,1.42,9.688,5.966,9.688,11.146s-4.058,9.727-9.688,11.146v2.429c5.63,1.419,9.688,5.966,9.688,11.146s-4.058,9.728-9.688,11.146v2.429c5.63,1.42,9.688,5.966,9.688,11.146s-4.058,9.727-9.688,11.146v2.429c5.63,1.419,9.688,5.966,9.688,11.146s-4.058,9.728-9.688,11.146v2.429c5.63,1.42,9.688,5.966,9.688,11.146s-4.058,9.727-9.688,11.146v2.429c5.63,1.419,9.688,5.966,9.688,11.146s-4.058,9.728-9.688,11.146v6.182h6.39c1.626-5.258,6.016-8.923,10.939-8.923s9.312,3.665,10.938,8.923h2.845c1.626-5.258,6.015-8.923,10.938-8.923s9.312,3.665,10.938,8.923h2.844c1.626-5.258,6.016-8.923,10.939-8.923s9.312,3.665,10.938,8.923h2.845c1.626-5.258,6.015-8.923,10.938-8.923s9.312,3.665,10.938,8.923h2.844c1.626-5.258,6.016-8.923,10.939-8.923s9.312,3.665,10.938,8.923h2.845c1.626-5.258,6.015-8.923,10.938-8.923s9.312,3.665,10.938,8.923Z" fill="#231f20"/><rect x="20.631" y="20.632" width="125" height="125" rx="4" ry="4" fill="#a13a1e"/><path d="M141.631,147.631H24.631c-3.309,0-6-2.691-6-6V24.631c0-3.309,2.691-6,6-6h117c3.309,0,6,2.691,6,6v117c0,3.309-2.691,6-6,6ZM24.631,22.631c-1.103,0-2,.897-2,2v117c0,1.103.897,2,2,2h117c1.103,0,2-.897,2-2V24.631c0-1.103-.897-2-2-2H24.631Z" fill="#231f20"/><path d="M135.745,132.458c-5.258,8.947-16.093,10.543-18.723,8.465s2.293-7.249,9.199-15.99c4.608-5.833.187-22.137,3.689-29.056,1.681-3.321,6.014-2.632,7.207-1.716,1.83,1.404,1.789,2.988,1.678,4.999-.447,8.088,3.224,22.62-3.051,33.298Z" fill="#fefaf0"/><path d="M120.334,143.738c-1.923,0-3.513-.424-4.552-1.245-.835-.659-1.338-1.555-1.454-2.589-.332-2.954,2.57-6.559,7.379-12.53.925-1.147,1.912-2.374,2.944-3.681,2.012-2.546,1.909-8.348,1.81-13.959-.101-5.7-.196-11.084,1.665-14.76.891-1.76,2.4-2.928,4.367-3.375,2.317-.528,4.69.093,5.842.976,2.714,2.082,2.571,4.641,2.458,6.695-.116,2.099.072,4.804.271,7.668.565,8.134,1.27,18.256-3.595,26.533-3.025,5.147-8.326,8.876-14.181,9.975-1.045.196-2.038.292-2.955.292ZM118.297,139.377c.419.263,1.87.586,4.255.138,1.773-.333,7.842-1.898,11.469-8.07h0c4.236-7.208,3.581-16.646,3.054-24.229-.208-2.992-.405-5.818-.275-8.166.11-1.998.037-2.583-.899-3.301-.259-.175-1.469-.52-2.612-.227-.74.191-1.261.604-1.593,1.259-1.412,2.79-1.321,7.921-1.233,12.883.116,6.604.227,12.842-2.671,16.51-1.04,1.316-2.035,2.553-2.967,3.709-3.076,3.819-6.554,8.139-6.526,9.494Z" fill="#231f20"/><path d="M42.129,143.701c0,.033.03.059.068,1.931h80.835c.037-1.872.068-1.899.068-1.931v-69.359c0-4.123.022-8.783-1.682-13.634,0,0-.288-.774-.697-1.871-1.813-4.866-4.157-9.575-6.995-14.056l-4.521-7.137c-.499-.913-1.414-1.471-2.411-1.65-1.694-.304-3.349.686-3.864,2.122l-3.832,10.679c-.011.029-.046.043-.081.039-6.755-.815-10.562-.743-16.403-.743h0c-5.841,0-9.059.191-16.403.743-.035.003-.07-.009-.081-.039l-3.832-10.679c-.515-1.436-2.17-2.425-3.864-2.122-.997.179-1.912.737-2.411,1.65l-4.521,7.137c-2.838,4.48-5.181,9.19-6.995,14.056-.409,1.097-.697,1.87-.697,1.871-1.704,4.851-1.682,9.511-1.682,13.634v69.359c0,.033.03.059.068,1.931h80.835c.037-1.872.068-1.899.068-1.931" fill="#fefaf0"/><path d="M124.992,147.631H40.235l-.039-1.96c-.024-1.269-.043-1.622-.054-1.731l-.014-.239v-69.519c0-4.231,0-9.027,1.795-14.139l.71-1.906c1.856-4.984,4.272-9.839,7.179-14.427l4.491-7.089c.768-1.358,2.141-2.303,3.778-2.597,2.6-.471,5.231,1,6.099,3.415l3.333,9.29c6.257-.463,9.504-.641,15.101-.641h1.299c4.779-.006,8.351-.009,13.821.583l3.312-9.232c.866-2.415,3.492-3.881,6.1-3.415,1.637.293,3.01,1.238,3.777,2.597l4.491,7.089c2.905,4.586,5.321,9.44,7.18,14.428l.696,1.87c1.809,5.146,1.808,9.942,1.808,14.174l-.016,69.773c-.009.094-.027.447-.052,1.716l-.039,1.96ZM44.131,143.631h76.966c0-.011,0-.021.002-.029v-69.42c0-3.911,0-8.346-1.568-12.812l-.684-1.836c-1.762-4.727-4.054-9.33-6.811-13.683l-4.588-7.249c-.251-.459-.788-.601-1.008-.64-.749-.141-1.446.319-1.628.828l-4.381,12.208-1.69-.185c-6.085-.733-9.749-.722-14.824-.726h-1.303c-5.882,0-9.129.203-16.254.738l-1.507.113-.602-1.457-3.836-10.691c-.182-.509-.884-.969-1.628-.829-.221.039-.759.181-1.009.64l-.066.112-4.521,7.137c-2.758,4.354-5.049,8.957-6.81,13.684l-.697,1.87c-1.557,4.432-1.556,8.866-1.556,12.777v69.42c0,.009.002.019.002.029Z" fill="#231f20"/><circle cx="66.412" cy="65.409" r="2.777" fill="#231f20"/><path d="M66.412,70.185c-2.634,0-4.777-2.143-4.777-4.776s2.144-4.776,4.777-4.776,4.776,2.143,4.776,4.776-2.143,4.776-4.776,4.776ZM66.412,64.632c-.429,0-.777.349-.777.776s.349.776.777.776.776-.349.776-.776-.349-.776-.776-.776Z" fill="#231f20"/><circle cx="98.459" cy="65.409" r="2.777" fill="#231f20"/><path d="M98.459,70.185c-2.634,0-4.777-2.143-4.777-4.776s2.144-4.776,4.777-4.776,4.776,2.143,4.776,4.776-2.143,4.776-4.776,4.776ZM98.459,64.632c-.429,0-.777.349-.777.776s.349.776.777.776.776-.349.776-.776-.349-.776-.776-.776Z" fill="#231f20"/><path d="M83.302,72.717l1.85-1.752c.656-.622.216-1.726-.688-1.726h-3.7c-.904,0-1.344,1.104-.688,1.726l1.85,1.752c.386.365.99.365,1.375,0Z"/><path d="M82.614,74.99c-.743,0-1.485-.273-2.063-.821l-1.85-1.752c-.897-.851-1.182-2.142-.724-3.289.457-1.147,1.551-1.889,2.786-1.889h3.7c1.235,0,2.329.741,2.786,1.889.458,1.147.174,2.438-.723,3.288l-1.851,1.753c-.578.548-1.32.821-2.062.821Z" fill="#231f20"/><path d="M92.318,75.797c-.867,1.743-2.648,2.952-4.728,2.952-2.92,0-5.287-2.363-5.296-5.282-.001,0-.002,0-.003,0-.009,2.918-2.376,5.282-5.296,5.282-1.979,0-3.684-1.098-4.593-2.705-6.654,3.624-11.171,10.68-11.171,18.79,0,1.371.142,2.707.388,4.006.101-.043.197-.091.3-.131,4.601-1.785,9.51-.194,10.963,3.553,1.244,3.208-.454,6.952-3.855,9.084,3.694,3.043,8.427,4.872,13.587,4.872s9.893-1.829,13.587-4.872c-3.401-2.132-5.099-5.875-3.855-9.084,1.453-3.747,6.361-5.337,10.963-3.553.103.04.199.088.3.131.246-1.299.388-2.635.388-4.006,0-8.312-4.752-15.5-11.679-19.038Z" fill="#f1c166"/><path d="M82.614,118.218c-5.411,0-10.688-1.893-14.859-5.328l-2.143-1.765,2.352-1.474c2.629-1.647,3.912-4.451,3.054-6.666-1.052-2.713-4.808-3.796-8.376-2.412l-2.527,1.074-.461-2.436c-.28-1.479-.423-2.953-.423-4.378,0-8.57,4.681-16.443,12.214-20.547l1.729-.94.97,1.713c.598,1.058,1.664,1.688,2.852,1.688,1.812,0,3.291-1.475,3.297-3.288l.007-1.993h3.987l.009,1.994c.006,1.812,1.484,3.287,3.296,3.287,1.246,0,2.372-.706,2.938-1.844l.9-1.809,1.8.919c7.876,4.023,12.769,12.001,12.769,20.819,0,1.425-.143,2.898-.423,4.378l-.461,2.436-2.448-1.038c-1.877-.732-3.768-.824-5.401-.296-1.487.482-2.571,1.431-3.053,2.671-.859,2.216.424,5.02,3.053,6.667l2.352,1.474-2.143,1.765c-4.172,3.436-9.448,5.328-14.858,5.328ZM72.32,111.259c3.068,1.921,6.645,2.959,10.294,2.959s7.225-1.038,10.293-2.959c-2.699-2.733-3.697-6.443-2.425-9.721.924-2.383,2.895-4.17,5.549-5.029,1.855-.603,3.896-.691,5.912-.28.036-.471.054-.937.054-1.395,0-6.731-3.441-12.872-9.088-16.406-1.356,1.464-3.262,2.32-5.319,2.32-2.083,0-3.967-.88-5.298-2.288-1.332,1.408-3.216,2.288-5.298,2.288-1.914,0-3.73-.768-5.074-2.082-5.399,3.573-8.689,9.626-8.689,16.168,0,.459.019.926.054,1.396,4.968-1.008,9.841,1.125,11.462,5.309,1.271,3.276.272,6.986-2.426,9.72Z" fill="#231f20"/><circle cx="82.614" cy="86.068" r="2.5" fill="#231f20"/><circle cx="93.882" cy="89.893" r="2.5" fill="#231f20"/><circle cx="86.104" cy="93.332" r="2.5" fill="#231f20"/><circle cx="72.312" cy="89.159" r="2.5" fill="#231f20"/><circle cx="84.072" cy="105.998" r="2.5" fill="#231f20"/><circle cx="79.072" cy="98.939" r="2.5" fill="#231f20"/><path d="M116.967,73.825c4.335-1.464,8.669-2.929,13.004-4.393,1.236-.418,2.178-1.74,1.746-3.075-.398-1.229-1.749-2.194-3.075-1.746-4.335,1.464-8.669,2.929-13.004,4.393-1.236.418-2.178,1.74-1.746,3.075.398,1.229,1.749,2.194,3.075,1.746h0Z" fill="#231f20"/><path d="M129.971,84.78c-4.335-1.464-8.669-2.929-13.004-4.393-1.24-.419-2.787.481-3.075,1.746-.315,1.384.418,2.627,1.746,3.075,4.335,1.464,8.669,2.929,13.004,4.393,1.24.419,2.787-.481,3.075-1.746.315-1.384-.418-2.627-1.746-3.075h0Z" fill="#231f20"/><path d="M120.139,79.606c3.621,0,7.242,0,10.863,0,1.308,0,2.56-1.15,2.5-2.5s-1.098-2.5-2.5-2.5c-3.621,0-7.242,0-10.863,0-1.308,0-2.56,1.15-2.5,2.5s1.098,2.5,2.5,2.5h0Z" fill="#231f20"/><path d="M49.59,69.004c-4.335-1.464-8.669-2.929-13.004-4.393-1.24-.419-2.787.481-3.075,1.746-.315,1.384.418,2.627,1.746,3.075,4.335,1.464,8.669,2.929,13.004,4.393,1.24.419,2.787-.481,3.075-1.746.315-1.384-.418-2.627-1.746-3.075h0Z" fill="#231f20"/><path d="M36.586,89.601c4.335-1.464,8.669-2.929,13.004-4.393,1.236-.418,2.178-1.74,1.746-3.075-.398-1.229-1.749-2.194-3.075-1.746-4.335,1.464-8.669,2.929-13.004,4.393-1.236.418-2.178,1.74-1.746,3.075.398,1.229,1.749,2.194,3.075,1.746h0Z" fill="#231f20"/><path d="M45.089,74.606c-3.621,0-7.242,0-10.863,0-1.308,0-2.56,1.15-2.5,2.5s1.098,2.5,2.5,2.5c3.621,0,7.242,0,10.863,0,1.308,0,2.56-1.15,2.5-2.5s-1.098-2.5-2.5-2.5h0Z" fill="#231f20"/></svg>