<svg width="83" height="107" viewBox="0 0 83 107" fill="none" xmlns="http://www.w3.org/2000/svg">
<g clip-path="url(#clip0_885_1372)">
<path d="M3.84107 95.7899C3.06214 95.7899 2.38547 95.6357 1.81104 95.3272C1.23618 95.0187 0.790769 94.5761 0.474812 93.999C0.158417 93.4219 0 92.7403 0 91.9543C0 91.3673 0.0873268 90.84 0.262858 90.3723C0.43839 89.9046 0.693788 89.5064 1.02993 89.1782C1.36607 88.85 1.77199 88.5989 2.24943 88.4244C2.72644 88.2505 3.25742 88.163 3.8415 88.163C4.14342 88.163 4.46683 88.2002 4.81263 88.2751C5.15799 88.35 5.49676 88.4715 5.82764 88.6406C6.01239 88.7504 6.14184 88.8845 6.21469 89.0432C6.28797 89.2024 6.31474 89.3692 6.29499 89.5432C6.27525 89.7172 6.21469 89.8714 6.11244 90.006C6.01019 90.14 5.88118 90.2297 5.72539 90.2746C5.56961 90.3194 5.39452 90.292 5.19968 90.1925C5.01449 90.093 4.82229 90.0158 4.62306 89.9611C4.42339 89.9064 4.23601 89.8791 4.06092 89.8791C3.76866 89.8791 3.51063 89.9261 3.28682 90.0208C3.06258 90.1154 2.8752 90.2499 2.72469 90.4234C2.57373 90.5979 2.45656 90.814 2.37406 91.0727C2.29112 91.3319 2.24987 91.6247 2.24987 91.9534C2.24987 92.6098 2.40829 93.13 2.72469 93.5129C3.04108 93.8959 3.48649 94.0873 4.06092 94.0873C4.23601 94.0873 4.42076 94.0627 4.61604 94.0124C4.81044 93.9627 5.00528 93.8833 5.20012 93.7739C5.39496 93.6743 5.56742 93.6497 5.71881 93.699C5.86977 93.7488 5.99615 93.8407 6.0984 93.9752C6.20065 94.1093 6.25638 94.264 6.26647 94.438C6.27612 94.6124 6.24453 94.7788 6.17168 94.9379C6.0984 95.0971 5.96938 95.2213 5.78464 95.311C5.46341 95.4899 5.13473 95.6146 4.79859 95.6841C4.46245 95.7536 4.14342 95.7886 3.84194 95.7886L3.84107 95.7899Z" fill="#E7D8C8"/>
<path d="M10.6324 95.79C9.86313 95.79 9.19611 95.6357 8.63134 95.3272C8.06657 95.0187 7.62599 94.5788 7.30959 94.0062C6.99319 93.4345 6.83478 92.7552 6.83478 91.9691C6.83478 91.3822 6.9221 90.8548 7.09764 90.3871C7.27273 89.9199 7.52857 89.519 7.86471 89.1859C8.20085 88.8527 8.60457 88.5989 9.07675 88.4249C9.54893 88.251 10.0676 88.1635 10.6324 88.1635C11.4012 88.1635 12.0709 88.3178 12.6405 88.6263C13.2101 88.9348 13.6529 89.3751 13.9697 89.9468C14.2861 90.519 14.4445 91.1929 14.4445 91.9691C14.4445 92.5565 14.3541 93.0883 14.1742 93.5659C13.9938 94.0434 13.7384 94.4465 13.4071 94.7748C13.0762 95.103 12.6769 95.3541 12.2095 95.5285C11.7422 95.7025 11.2165 95.79 10.6324 95.79ZM10.6324 94.1183C10.9536 94.1183 11.231 94.0416 11.4649 93.8869C11.6983 93.7327 11.8835 93.4964 12.02 93.178C12.1564 92.8601 12.2245 92.457 12.2245 91.9691C12.2245 91.2431 12.0783 90.7082 11.7861 90.3647C11.4938 90.0212 11.1094 89.85 10.6324 89.85C10.3208 89.85 10.0457 89.9248 9.80696 90.0742C9.56824 90.2235 9.38349 90.4571 9.25184 90.7755C9.12064 91.0938 9.05481 91.492 9.05481 91.9696C9.05481 92.7063 9.20094 93.2484 9.4932 93.5964C9.78546 93.9448 10.165 94.1188 10.6324 94.1188V94.1183Z" fill="#E7D8C8"/>
<path d="M18.5774 95.7899C17.9542 95.7899 17.4066 95.6384 16.9344 95.3348C16.4622 95.0312 16.0949 94.5909 15.8321 94.0138C15.5692 93.4367 15.438 92.7551 15.438 91.9691C15.438 91.183 15.5692 90.5064 15.8321 89.9396C16.0949 89.3728 16.4622 88.9347 16.9344 88.6262C17.4066 88.3177 17.9542 88.1635 18.5774 88.1635C19.1421 88.1635 19.6437 88.3029 20.0817 88.5814C20.5205 88.8603 20.8128 89.2231 20.9584 89.671H20.7974V86.134C20.7974 85.756 20.89 85.4722 21.0752 85.2834C21.2604 85.0946 21.5329 85 21.8936 85C22.2433 85 22.5159 85.0946 22.7111 85.2834C22.9055 85.4722 23.0034 85.756 23.0034 86.134V94.6259C23.0034 94.994 22.9082 95.2752 22.7182 95.4689C22.5286 95.663 22.2631 95.7599 21.923 95.7599C21.5623 95.7599 21.2871 95.663 21.0976 95.4689C20.9071 95.2747 20.8132 94.994 20.8132 94.6259V93.6111L20.9734 94.1932C20.8369 94.6806 20.5473 95.0689 20.1045 95.3572C19.6613 95.6455 19.1518 95.7899 18.5774 95.7899ZM19.2347 94.1183C19.556 94.1183 19.8337 94.0416 20.0668 93.8869C20.3006 93.7326 20.4858 93.4963 20.6223 93.178C20.7588 92.8601 20.8272 92.4569 20.8272 91.9691C20.8272 91.2431 20.6807 90.7082 20.3884 90.3647C20.097 90.0212 19.7122 89.8499 19.2347 89.8499C18.9227 89.8499 18.6485 89.9248 18.4093 90.0741C18.171 90.2234 17.9858 90.4571 17.8546 90.7754C17.7225 91.0938 17.6576 91.492 17.6576 91.9695C17.6576 92.7063 17.8033 93.2484 18.0955 93.5963C18.3878 93.9447 18.7674 94.1187 19.2347 94.1187V94.1183Z" fill="#E7D8C8"/>
<path d="M28.4211 95.79C27.5742 95.79 26.8462 95.6357 26.2375 95.3272C25.6289 95.0187 25.1615 94.5788 24.8355 94.0062C24.5094 93.4345 24.3466 92.7552 24.3466 91.9691C24.3466 91.2131 24.5046 90.554 24.821 89.9917C25.1374 89.4298 25.5736 88.9841 26.1283 88.6559C26.6834 88.3276 27.3109 88.1635 28.0122 88.1635C28.5475 88.1635 29.0223 88.2505 29.4362 88.4249C29.8495 88.5989 30.2076 88.8478 30.5095 89.1711C30.8114 89.4944 31.0401 89.8876 31.1959 90.3499C31.3512 90.8127 31.4293 91.3274 31.4293 91.8942C31.4293 92.0835 31.3709 92.2251 31.2542 92.3198C31.137 92.4144 30.9672 92.4615 30.743 92.4615H26.1717V91.2974H29.8377L29.6042 91.5064C29.6042 91.0983 29.5459 90.758 29.4291 90.484C29.312 90.2105 29.1443 90.0015 28.9254 89.8571C28.7064 89.7132 28.4361 89.641 28.1148 89.641C27.7546 89.641 27.4474 89.7257 27.1946 89.8948C26.941 90.0638 26.7466 90.3105 26.6101 90.6333C26.4736 90.9566 26.4056 91.3422 26.4056 91.7897V91.9095C26.4056 92.6655 26.5759 93.2228 26.9168 93.5811C27.2574 93.9394 27.7734 94.1183 28.465 94.1183C28.6985 94.1183 28.964 94.0887 29.2606 94.0291C29.5577 93.9694 29.8421 93.8748 30.115 93.7452C30.3485 93.6358 30.5477 93.6013 30.7136 93.6408C30.879 93.6807 31.0133 93.7627 31.1151 93.8869C31.2174 94.0116 31.2731 94.1582 31.2832 94.3273C31.2928 94.4963 31.256 94.6631 31.1739 94.8272C31.091 94.9913 30.9523 95.1281 30.7575 95.238C30.4169 95.4371 30.0369 95.5788 29.6183 95.6631C29.1996 95.7474 28.8007 95.79 28.4211 95.79Z" fill="#E7D8C8"/>
<path d="M36.206 95.7899C35.4271 95.7899 34.7504 95.6357 34.176 95.3272C33.6011 95.0187 33.1557 94.5761 32.8393 93.999C32.5229 93.4219 32.3649 92.7403 32.3649 91.9543C32.3649 91.3673 32.4523 90.84 32.6278 90.3723C32.8033 89.9046 33.0587 89.5064 33.3944 89.1782C33.7306 88.85 34.1369 88.5989 34.6139 88.4244C35.0909 88.25 35.6219 88.163 36.206 88.163C36.5079 88.163 36.8318 88.2002 37.1771 88.2751C37.5229 88.35 37.8613 88.4715 38.1921 88.6406C38.3769 88.7504 38.5063 88.8845 38.5792 89.0432C38.6525 89.2024 38.6792 89.3692 38.6599 89.5432C38.6402 89.7172 38.5792 89.8714 38.4774 90.006C38.3751 90.14 38.2461 90.2297 38.0899 90.2746C37.9345 90.3194 37.759 90.292 37.5646 90.1925C37.3794 90.093 37.1872 90.0158 36.9875 89.9611C36.7879 89.9064 36.6005 89.8791 36.4254 89.8791C36.1336 89.8791 35.8751 89.9261 35.6513 90.0208C35.4271 90.1154 35.2397 90.2499 35.0892 90.4234C34.9378 90.5979 34.8215 90.814 34.7386 91.0727C34.6561 91.3319 34.6144 91.6247 34.6144 91.9534C34.6144 92.6098 34.7723 93.13 35.0892 93.5129C35.4056 93.8959 35.8505 94.0873 36.4254 94.0873C36.6005 94.0873 36.7857 94.0627 36.9805 94.0124C37.1754 93.9627 37.3702 93.8833 37.565 93.7739C37.7594 93.6743 37.9323 93.6497 38.0833 93.699C38.2343 93.7488 38.3611 93.8407 38.4633 93.9752C38.5651 94.1093 38.6213 94.264 38.631 94.438C38.6406 94.6124 38.609 94.7788 38.5362 94.9379C38.4633 95.0971 38.3339 95.2213 38.1491 95.311C37.8279 95.4899 37.4992 95.6146 37.1631 95.6841C36.8269 95.7536 36.5083 95.7886 36.2064 95.7886L36.206 95.7899Z" fill="#E7D8C8"/>
<path d="M42.106 95.7899C41.561 95.7899 41.084 95.6877 40.6746 95.4837C40.2656 95.2797 39.9444 95.0012 39.7109 94.6479C39.4775 94.295 39.3603 93.8896 39.3603 93.4318C39.3603 92.8946 39.4968 92.4718 39.7693 92.1633C40.0418 91.8547 40.4824 91.631 41.0915 91.4915C41.6997 91.3521 42.5102 91.2826 43.523 91.2826H44.2971V92.4466H43.5379C43.0315 92.4466 42.63 92.4744 42.3329 92.5287C42.0358 92.5839 41.8195 92.678 41.6834 92.8121C41.5465 92.9466 41.479 93.1233 41.479 93.3421C41.479 93.6107 41.5737 93.8344 41.7633 94.0138C41.9529 94.1932 42.2236 94.2824 42.5743 94.2824C42.8569 94.2824 43.1096 94.2178 43.3334 94.0882C43.5572 93.9591 43.7323 93.7797 43.8592 93.5511C43.9855 93.3224 44.0492 93.0488 44.0492 92.73V91.0288C44.0492 90.5911 43.9518 90.2804 43.7569 90.0961C43.5625 89.9123 43.2264 89.8199 42.7494 89.8199C42.4962 89.8199 42.2162 89.8495 41.9094 89.9096C41.6027 89.9692 41.2644 90.0786 40.8944 90.2378C40.6706 90.3275 40.4784 90.3477 40.3178 90.2974C40.1572 90.2477 40.0335 90.1508 39.9452 90.0064C39.8579 89.8625 39.814 89.7006 39.814 89.5213C39.814 89.3419 39.8623 89.1733 39.9597 89.0137C40.0571 88.8549 40.223 88.7352 40.4565 88.6554C40.9045 88.4765 41.3302 88.3496 41.7344 88.2747C42.1385 88.1998 42.5062 88.1626 42.8371 88.1626C43.5871 88.1626 44.2076 88.2747 44.6995 88.4985C45.191 88.7222 45.5561 89.0679 45.7948 89.5356C46.0331 90.0033 46.1525 90.5952 46.1525 91.3113V94.6245C46.1525 94.9927 46.0621 95.2738 45.8822 95.4675C45.7018 95.6617 45.4517 95.7585 45.13 95.7585C44.7987 95.7585 44.5433 95.6617 44.3634 95.4675C44.183 95.2734 44.0931 94.9927 44.0931 94.6245V94.0726L44.1953 94.177C44.1365 94.5053 44.0127 94.7891 43.8227 95.0276C43.6327 95.2666 43.394 95.4532 43.107 95.5873C42.8196 95.7218 42.4861 95.789 42.1065 95.789L42.106 95.7899Z" fill="#E7D8C8"/>
<path d="M36.4385 107C35.6596 107 34.9829 106.846 34.4085 106.537C33.8337 106.229 33.3882 105.786 33.0718 105.209C32.7555 104.632 32.5975 103.95 32.5975 103.164C32.5975 102.577 32.6848 102.05 32.8603 101.582C33.0359 101.115 33.2913 100.717 33.627 100.388C33.9631 100.06 34.3695 99.809 34.8465 99.6345C35.3235 99.4601 35.8545 99.3731 36.4385 99.3731C36.7405 99.3731 37.0643 99.4103 37.4097 99.4852C37.7555 99.5601 38.0938 99.6816 38.4247 99.8507C38.6094 99.9605 38.7389 100.095 38.8117 100.253C38.885 100.413 38.9118 100.579 38.8925 100.753C38.8727 100.927 38.8117 101.082 38.7099 101.216C38.6077 101.35 38.4787 101.44 38.3224 101.485C38.1671 101.529 37.9916 101.502 37.7972 101.403C37.612 101.303 37.4198 101.226 37.2201 101.171C37.0204 101.116 36.833 101.089 36.658 101.089C36.3661 101.089 36.1077 101.136 35.8839 101.231C35.6596 101.325 35.4722 101.46 35.3217 101.634C35.1703 101.808 35.054 102.024 34.9711 102.283C34.8886 102.542 34.8469 102.835 34.8469 103.163C34.8469 103.82 35.0049 104.34 35.3217 104.723C35.6381 105.106 36.0831 105.297 36.658 105.297C36.833 105.297 37.0182 105.273 37.2131 105.223C37.4079 105.173 37.6028 105.093 37.7976 104.984C37.992 104.884 38.1649 104.86 38.3158 104.909C38.4668 104.959 38.5936 105.051 38.6959 105.185C38.7977 105.319 38.8538 105.474 38.8635 105.648C38.8732 105.822 38.8416 105.989 38.7687 106.148C38.6959 106.307 38.5664 106.431 38.3817 106.521C38.0604 106.7 37.7318 106.825 37.3956 106.894C37.0595 106.964 36.7409 106.999 36.439 106.999L36.4385 107Z" fill="#E7D8C8"/>
<path d="M43.2303 107C42.461 107 41.794 106.846 41.2292 106.537C40.6645 106.229 40.2234 105.789 39.9071 105.216C39.5907 104.645 39.4327 103.965 39.4327 103.179C39.4327 102.592 39.52 102.065 39.6955 101.597C39.8706 101.13 40.1265 100.729 40.4622 100.396C40.7983 100.063 41.2025 99.8089 41.6747 99.635C42.1468 99.461 42.6655 99.3735 43.2303 99.3735C43.9991 99.3735 44.6688 99.5278 45.2384 99.8363C45.808 100.145 46.2512 100.585 46.5671 101.157C46.8835 101.729 47.042 102.403 47.042 103.179C47.042 103.767 46.952 104.298 46.7716 104.776C46.5917 105.253 46.3359 105.657 46.005 105.985C45.6741 106.313 45.2748 106.564 44.8074 106.739C44.3401 106.913 43.8144 107 43.2303 107ZM43.2303 105.328C43.5515 105.328 43.8289 105.252 44.0623 105.097C44.2962 104.943 44.481 104.706 44.6174 104.388C44.7539 104.07 44.8224 103.667 44.8224 103.179C44.8224 102.453 44.6762 101.918 44.384 101.575C44.0922 101.231 43.7073 101.06 43.2303 101.06C42.9183 101.06 42.6436 101.135 42.4049 101.284C42.1661 101.433 41.9814 101.667 41.8497 101.985C41.7181 102.304 41.6527 102.702 41.6527 103.18C41.6527 103.916 41.7988 104.458 42.0907 104.806C42.3829 105.155 42.7625 105.328 43.2303 105.328Z" fill="#E7D8C8"/>
<path d="M51.8327 107C51.0634 107 50.3964 106.846 49.8316 106.537C49.2668 106.229 48.8258 105.789 48.5094 105.216C48.193 104.645 48.035 103.965 48.035 103.179C48.035 102.592 48.1224 102.065 48.2979 101.597C48.473 101.13 48.7288 100.729 49.0645 100.396C49.4007 100.063 49.8048 99.8089 50.277 99.635C50.7492 99.461 51.2679 99.3735 51.8327 99.3735C52.6015 99.3735 53.2711 99.5278 53.8407 99.8363C54.4103 100.145 54.8536 100.585 55.1695 101.157C55.4859 101.729 55.6443 102.403 55.6443 103.179C55.6443 103.767 55.5544 104.298 55.374 104.776C55.1941 105.253 54.9382 105.657 54.6074 105.985C54.2765 106.313 53.8772 106.564 53.4098 106.739C52.9425 106.913 52.4167 107 51.8327 107ZM51.8327 105.328C52.1539 105.328 52.4312 105.252 52.6647 105.097C52.8986 104.943 53.0833 104.706 53.2198 104.388C53.3563 104.07 53.4247 103.667 53.4247 103.179C53.4247 102.453 53.2786 101.918 52.9863 101.575C52.6945 101.231 52.3097 101.06 51.8327 101.06C51.5206 101.06 51.2459 101.135 51.0072 101.284C50.7685 101.433 50.5838 101.667 50.4521 101.985C50.3205 102.304 50.2551 102.702 50.2551 103.18C50.2551 103.916 50.4012 104.458 50.693 104.806C50.9853 105.155 51.3649 105.328 51.8327 105.328Z" fill="#E7D8C8"/>
<path d="M58.0834 106.97C57.7424 106.97 57.4747 106.873 57.2799 106.679C57.0855 106.485 56.988 106.204 56.988 105.836V97.3441C56.988 96.9661 57.0855 96.6823 57.2799 96.4935C57.4747 96.3047 57.7424 96.2101 58.0834 96.2101C58.4432 96.2101 58.7183 96.3047 58.9084 96.4935C59.0984 96.6823 59.1932 96.9661 59.1932 97.3441V102.568H59.2221L61.3399 100.165C61.5536 99.9058 61.7489 99.7148 61.924 99.5901C62.0991 99.4659 62.3426 99.4036 62.6542 99.4036C62.9658 99.4036 63.1992 99.4834 63.3554 99.6426C63.5108 99.8018 63.5915 99.9933 63.5964 100.217C63.6016 100.441 63.5064 100.672 63.312 100.911L61.077 103.433V102.583L63.5599 105.508C63.7447 105.747 63.825 105.98 63.8009 106.209C63.7763 106.438 63.6745 106.622 63.4945 106.761C63.3142 106.9 63.093 106.97 62.8297 106.97C62.4984 106.97 62.2334 106.908 62.0341 106.783C61.8345 106.659 61.6322 106.468 61.4277 106.209L59.2225 103.687H59.1936V105.836C59.1936 106.592 58.8232 106.97 58.0838 106.97L58.0834 106.97Z" fill="#E7D8C8"/>
<path d="M66.2333 98.1947C65.8339 98.1947 65.5272 98.0951 65.313 97.896C65.0989 97.697 64.9918 97.4136 64.9918 97.0454C64.9918 96.6871 65.0989 96.4109 65.313 96.2172C65.5268 96.0231 65.8339 95.9262 66.2333 95.9262C66.6423 95.9262 66.956 96.0235 67.175 96.2172C67.394 96.4109 67.5037 96.6871 67.5037 97.0454C67.5037 97.4136 67.394 97.697 67.175 97.896C66.956 98.0951 66.6418 98.1947 66.2333 98.1947ZM66.2333 106.97C65.8923 106.97 65.6246 106.863 65.4298 106.649C65.2354 106.435 65.138 106.135 65.138 105.746V100.627C65.138 100.23 65.2354 99.9287 65.4298 99.7246C65.6246 99.5206 65.8923 99.4184 66.2333 99.4184C66.5931 99.4184 66.8683 99.5206 67.0583 99.7246C67.2483 99.9287 67.3431 100.23 67.3431 100.627V105.746C67.3431 106.134 67.2505 106.435 67.0653 106.649C66.8805 106.863 66.6028 106.97 66.2333 106.97Z" fill="#E7D8C8"/>
<path d="M72.7758 107C71.9288 107 71.2008 106.846 70.5921 106.537C69.9835 106.229 69.5161 105.789 69.1901 105.216C68.864 104.645 68.7012 103.965 68.7012 103.179C68.7012 102.423 68.8592 101.764 69.1756 101.202C69.492 100.64 69.9282 100.194 70.4829 99.8659C71.038 99.5377 71.6655 99.3735 72.3668 99.3735C72.9021 99.3735 73.377 99.4605 73.7908 99.635C74.2041 99.8089 74.5622 100.058 74.8641 100.381C75.1661 100.704 75.3947 101.098 75.5505 101.56C75.7058 102.023 75.7839 102.537 75.7839 103.104C75.7839 103.293 75.7256 103.435 75.6088 103.53C75.4917 103.624 75.3218 103.671 75.0976 103.671H70.5263V102.507H74.1923L73.9588 102.716C73.9588 102.308 73.9005 101.968 73.7837 101.694C73.6666 101.42 73.4989 101.212 73.28 101.067C73.061 100.923 72.7907 100.851 72.4695 100.851C72.1092 100.851 71.802 100.936 71.5492 101.105C71.2956 101.274 71.1012 101.52 70.9647 101.843C70.8282 102.167 70.7602 102.552 70.7602 103V103.119C70.7602 103.876 70.9305 104.433 71.2714 104.791C71.612 105.149 72.128 105.328 72.8196 105.328C73.0531 105.328 73.3186 105.299 73.6152 105.239C73.9123 105.179 74.1967 105.085 74.4696 104.955C74.7031 104.846 74.9023 104.811 75.0682 104.851C75.2336 104.891 75.3679 104.973 75.4697 105.097C75.572 105.222 75.6277 105.368 75.6378 105.537C75.6475 105.706 75.6106 105.873 75.5285 106.037C75.4456 106.201 75.3069 106.338 75.1121 106.448C74.7715 106.647 74.3915 106.789 73.9729 106.873C73.5542 106.957 73.1549 107 72.7753 107H72.7758Z" fill="#E7D8C8"/>
<path d="M79.8159 107C79.3972 107 78.9589 106.963 78.5016 106.888C78.0435 106.813 77.6345 106.682 77.2746 106.492C77.0701 106.393 76.9262 106.266 76.8437 106.112C76.7612 105.957 76.7248 105.798 76.7344 105.634C76.7436 105.47 76.795 105.326 76.888 105.201C76.9802 105.077 77.1017 104.993 77.2531 104.948C77.4041 104.903 77.5722 104.92 77.7569 105C78.1558 105.169 78.5235 105.289 78.8597 105.358C79.1954 105.428 79.5192 105.463 79.8308 105.463C80.2398 105.463 80.5413 105.393 80.7361 105.254C80.9305 105.114 81.0284 104.936 81.0284 104.717C81.0284 104.528 80.9647 104.386 80.8384 104.291C80.7115 104.197 80.5263 104.125 80.2832 104.075L78.735 103.792C78.1409 103.672 77.681 103.444 77.3545 103.105C77.0284 102.767 76.8656 102.329 76.8656 101.792C76.8656 101.285 77.0017 100.852 77.2746 100.493C77.5471 100.135 77.9241 99.8587 78.4064 99.665C78.8886 99.4713 79.4363 99.374 80.0493 99.374C80.4877 99.374 80.8893 99.4139 81.2544 99.4933C81.6195 99.5731 81.9771 99.7076 82.3277 99.8964C82.5028 99.9762 82.6275 100.091 82.7003 100.239C82.7731 100.389 82.7951 100.543 82.7657 100.702C82.7367 100.861 82.6757 101.003 82.5831 101.128C82.4905 101.252 82.369 101.337 82.218 101.382C82.0671 101.426 81.8893 101.404 81.6849 101.314C81.3733 101.185 81.0863 101.088 80.8234 101.023C80.5601 100.959 80.317 100.926 80.0928 100.926C79.6447 100.926 79.3209 100.996 79.1217 101.135C78.922 101.275 78.8219 101.454 78.8219 101.673C78.8219 101.842 78.8807 101.984 78.997 102.098C79.1142 102.212 79.2893 102.29 79.5227 102.329L81.0709 102.598C81.6941 102.717 82.1711 102.938 82.5024 103.262C82.8333 103.585 82.9991 104.02 82.9991 104.567C82.9991 105.344 82.7091 105.943 82.1303 106.366C81.551 106.789 80.7791 107 79.8154 107L79.8159 107Z" fill="#E7D8C8"/>
<path d="M53.7631 86.5039C53.57 86.4734 53.3729 86.5151 53.2075 86.6214C53.0425 86.7281 52.9205 86.8918 52.8648 87.0833C52.7739 87.4415 52.5694 87.759 52.2833 87.9859C51.9968 88.2128 51.6453 88.3361 51.2828 88.3366H50.5895C50.5671 88.3366 50.546 88.3276 50.5306 88.3119C50.5153 88.2962 50.5065 88.2747 50.5065 88.2523V87.1927C50.5065 86.8165 50.4117 86.534 50.2222 86.3456C50.0326 86.1573 49.7579 86.0627 49.3972 86.0623C49.0478 86.0623 48.7788 86.1564 48.5893 86.3452C48.3997 86.5335 48.3058 86.8165 48.3075 87.1931V88.3375H47.6673C47.4053 88.3375 47.1991 88.4061 47.049 88.5437C46.8993 88.6814 46.8239 88.8845 46.8234 89.1535C46.8234 89.4208 46.8989 89.6275 47.049 89.7728C47.1995 89.9181 47.4058 89.9898 47.6673 89.988H48.3075V92.7982C48.3075 93.4623 48.4142 94.0129 48.6274 94.4496C48.8403 94.8855 49.1922 95.2343 49.6249 95.4384C50.0738 95.6621 50.6351 95.7738 51.3083 95.7733C51.4939 95.7693 51.6786 95.7522 51.8612 95.7209C52.038 95.6957 52.2131 95.6585 52.3851 95.6092C52.4773 95.5828 52.562 95.5357 52.634 95.4715C52.7055 95.4074 52.7625 95.3272 52.7998 95.2375C52.8771 95.0339 52.9144 94.8164 52.9091 94.5981C52.9091 94.2806 52.8643 94.0743 52.7744 93.9788C52.7305 93.9326 52.6765 93.8977 52.6177 93.8757C52.5585 93.8537 52.4948 93.8456 52.4325 93.8524C52.3219 93.8555 52.2122 93.8703 52.1052 93.8972C51.9687 93.9272 51.8296 93.9425 51.6905 93.942C51.2731 93.942 50.9725 93.8403 50.7878 93.6371C50.6035 93.434 50.5113 93.1242 50.5118 92.7076V90.1266C50.5118 90.0903 50.5258 90.0548 50.5513 90.0293C50.5767 90.0033 50.611 89.9889 50.6465 89.9889H50.9111C51.7861 89.9965 52.6405 89.7154 53.3471 89.1881C53.8618 88.7939 54.2423 88.3092 54.3428 87.8415L54.4204 87.529C54.5214 87.055 54.2282 86.5788 53.7631 86.5039Z" fill="#E7D8C8"/>
</g>
<g clip-path="url(#clip1_885_1372)">
<path d="M82.4958 83.6345V79.2291C80.144 78.6228 78.4232 76.7425 78.4232 74.5201C78.4232 72.2978 80.1435 70.4174 82.4958 69.8111V66.5908C80.144 65.9845 78.4232 64.1041 78.4232 61.8818C78.4232 59.6594 80.1435 57.7791 82.4958 57.1728V53.9525C80.144 53.3461 78.4232 51.4658 78.4232 49.2435C78.4232 47.0211 80.1435 45.1408 82.4958 44.5344V41.3142C80.144 40.7078 78.4232 38.8275 78.4232 36.6051C78.4232 34.3828 80.1435 32.5025 82.4958 31.8961V28.6758C80.144 28.0695 78.4232 26.1892 78.4232 23.9668C78.4232 21.7445 80.1435 19.8641 82.4958 19.2578V16.0375C80.144 15.4312 78.4232 13.5509 78.4232 11.3285C78.4232 9.10615 80.1435 7.22581 82.4958 6.61949V2.21363C82.4958 1.79084 82.1598 1.44678 81.747 1.44678H77.4902C76.9566 3.9636 75.08 5.83116 72.8466 5.83116C70.6131 5.83116 68.7366 3.9636 68.2029 1.44678H65.1488C64.6151 3.9636 62.7386 5.83116 60.5051 5.83116C58.2717 5.83116 56.3951 3.9636 55.8615 1.44678H52.8073C52.2737 3.9636 50.3971 5.83116 48.1642 5.83116C45.9312 5.83116 44.0542 3.9636 43.5205 1.44678H40.4664C39.9327 3.9636 38.0562 5.83116 35.8232 5.83116C33.5903 5.83116 31.7132 3.9636 31.1796 1.44678H28.1254C27.5918 3.9636 25.7152 5.83116 23.4818 5.83116C21.2483 5.83116 19.3718 3.9636 18.8381 1.44678H15.784C15.2503 3.9636 13.3738 5.83116 11.1403 5.83116C8.90687 5.83116 7.03184 3.9636 6.49818 1.44678H2.24143C1.82858 1.44678 1.49261 1.79084 1.49261 2.21363V6.47481C4.22628 6.83625 6.32895 8.872 6.32895 11.328C6.32895 13.784 4.22628 15.8197 1.49261 16.1817V19.1136C4.22628 19.4751 6.32895 21.5108 6.32895 23.9668C6.32895 26.4228 4.22628 28.4586 1.49261 28.8205V31.7525C4.22628 32.1139 6.32895 34.1497 6.32895 36.6056C6.32895 39.0616 4.22628 41.0974 1.49261 41.4593V44.3913C4.22628 44.7527 6.32895 46.7885 6.32895 49.2445C6.32895 51.7005 4.22628 53.7362 1.49261 54.0982V57.0301C4.22628 57.3916 6.32895 59.4273 6.32895 61.8833C6.32895 64.3393 4.22628 66.375 1.49261 66.737V69.669C4.22628 70.0304 6.32895 72.0662 6.32895 74.5221C6.32895 76.9781 4.22628 79.0139 1.49261 79.3758V83.637C1.49261 84.0598 1.82858 84.4039 2.24143 84.4039H6.46024C6.94098 81.7976 8.85545 79.8421 11.1413 79.8421C13.4272 79.8421 15.3417 81.7971 15.8224 84.4039H18.8012C19.2819 81.7976 21.1964 79.8421 23.4823 79.8421C25.7682 79.8421 27.6826 81.7971 28.1634 84.4039H31.1421C31.6229 81.7976 33.5373 79.8421 35.8232 79.8421C38.1091 79.8421 40.0236 81.7971 40.5043 84.4039H43.4831C43.9638 81.7976 45.8783 79.8421 48.1642 79.8421C50.4501 79.8421 52.3645 81.7971 52.8453 84.4039H55.824C56.3048 81.7976 58.2192 79.8421 60.5051 79.8421C62.791 79.8421 64.7055 81.7971 65.1862 84.4039H68.165C68.6457 81.7976 70.5602 79.8421 72.8461 79.8421C75.1319 79.8421 77.0464 81.7971 77.5272 84.4039H81.746C82.1588 84.4039 82.4948 84.0598 82.4948 83.637L82.4958 83.6345Z" fill="#FEFAF0"/>
<path d="M81.2528 85H76.2068L76.053 84.1672C75.6541 82.0062 74.0981 80.4382 72.3529 80.4382C70.6076 80.4382 69.0516 82.0062 68.6527 84.1672L68.499 85H63.8653L63.7116 84.1672C63.3127 82.0062 61.7572 80.4382 60.0119 80.4382C58.2667 80.4382 56.7102 82.0062 56.3113 84.1672L56.1575 85H51.5244L51.3706 84.1672C50.9717 82.0062 49.4157 80.4382 47.6705 80.4382C45.9252 80.4382 44.3692 82.0062 43.9703 84.1672L43.8166 85H39.1829L39.0292 84.1672C38.6303 82.0062 37.0748 80.4382 35.3295 80.4382C33.5843 80.4382 32.0278 82.0062 31.6289 84.1672L31.4751 85H26.842L26.6882 84.1672C26.2894 82.0062 24.7333 80.4382 22.9881 80.4382C21.2428 80.4382 19.6868 82.0062 19.2879 84.1672L19.1342 85H14.5005L14.3468 84.1672C13.9479 82.0062 12.3924 80.4382 10.6471 80.4382C8.9019 80.4382 7.34536 82.0062 6.9465 84.1672L6.79274 85H1.74723C0.783758 85 0 84.1974 0 83.2107V78.0502L0.870621 77.9352C3.13104 77.6361 4.83584 75.9859 4.83584 74.0958C4.83584 72.2058 3.13104 70.5555 0.870621 70.2564L0 70.1414V65.4119L0.870122 65.2964C3.13104 64.9968 4.83584 63.3465 4.83584 61.4565C4.83584 59.5664 3.13104 57.9166 0.870122 57.6171L0 57.5015V52.7721L0.870621 52.657C3.13104 52.358 4.83584 50.7077 4.83584 48.8176C4.83584 46.9276 3.13104 45.2773 0.870621 44.9782L0 44.8632V40.1337L0.870122 40.0182C3.13104 39.7186 4.83584 38.0683 4.83584 36.1783C4.83584 34.2882 3.13104 32.6385 0.870122 32.3389L0 32.2233V27.4939L0.870621 27.3789C3.13104 27.0798 4.83584 25.4295 4.83584 23.5395C4.83584 21.6494 3.13104 19.9991 0.870621 19.7001L0 19.585V14.8556L0.870122 14.74C3.13104 14.4404 4.83584 12.7902 4.83584 10.9001C4.83584 9.01006 3.13104 7.3603 0.870122 7.06071L0 6.94517V1.78933C0 0.802644 0.783758 0 1.74723 0H6.80871L6.97944 0.8052C7.42673 2.91252 8.93485 4.38438 10.6481 4.38438C12.3614 4.38438 13.869 2.91252 14.3158 0.805711L14.4865 0H19.1507L19.3214 0.8052C19.7687 2.91252 21.2768 4.38438 22.9896 4.38438C24.7024 4.38438 26.2105 2.91252 26.6578 0.8052L26.8285 0H31.4921L31.6628 0.8052C32.1101 2.91252 33.6182 4.38438 35.3315 4.38438C37.0448 4.38438 38.5524 2.91252 38.9992 0.805711L39.1699 0H43.8341L44.0048 0.8052C44.4521 2.91252 45.9602 4.38438 47.673 4.38438C49.3858 4.38438 50.8939 2.91252 51.3412 0.8052L51.5119 0H56.1755L56.3462 0.8052C56.7935 2.91252 58.3016 4.38438 60.0149 4.38438C61.7282 4.38438 63.2358 2.91252 63.6826 0.805711L63.8533 0H68.5175L68.6882 0.8052C69.1355 2.91252 70.6436 4.38438 72.3564 4.38438C74.0692 4.38438 75.5773 2.91252 76.0246 0.8052L76.1953 0H81.2568C82.2202 0 83.004 0.802644 83.004 1.78933V6.99169L82.2492 7.18648C80.2958 7.69005 78.9315 9.21916 78.9315 10.9037C78.9315 12.5882 80.2953 14.1178 82.2492 14.6214L83.004 14.8162V19.63L82.2492 19.8248C80.2958 20.3279 78.9315 21.857 78.9315 23.542C78.9315 25.227 80.2953 26.7562 82.2492 27.2592L83.004 27.454V32.2678L82.2492 32.4626C80.2958 32.9662 78.9315 34.4953 78.9315 36.1798C78.9315 37.8643 80.2953 39.394 82.2492 39.8975L83.004 40.0923V44.9061L82.2492 45.1009C80.2958 45.604 78.9315 47.1331 78.9315 48.8181C78.9315 50.5032 80.2953 52.0323 82.2492 52.5354L83.004 52.7301V57.544L82.2492 57.7387C80.2958 58.2423 78.9315 59.7714 78.9315 61.4559C78.9315 63.1405 80.2953 64.6701 82.2492 65.1737L83.004 65.3685V70.1823L82.2492 70.3771C80.2958 70.8801 78.9315 72.4092 78.9315 74.0943C78.9315 75.7793 80.2953 77.3084 82.2492 77.8115L83.004 78.0063V83.2086C83.004 84.1953 82.2202 84.998 81.2568 84.998L81.2528 85ZM77.8132 82.955H81.0032V79.5574C78.5705 78.6346 76.9311 76.4807 76.9311 74.0958C76.9311 71.7109 78.5705 69.557 81.0032 68.6342V66.9185C78.5705 65.9952 76.9311 63.8414 76.9311 61.457C76.9311 59.0726 78.5705 56.9192 81.0032 55.9959V54.2802C78.5705 53.3574 76.9311 51.2036 76.9311 48.8186C76.9311 46.4337 78.5705 44.2799 81.0032 43.3571V41.6414C78.5705 40.7181 76.9311 38.5642 76.9311 36.1798C76.9311 33.7954 78.5705 31.6421 81.0032 30.7188V29.0031C78.5705 28.0803 76.9311 25.9264 76.9311 23.5415C76.9311 21.1566 78.5705 19.0027 81.0032 18.0799V16.3642C78.5705 15.4409 76.9311 13.2871 76.9311 10.9027C76.9311 8.51825 78.5705 6.36492 81.0032 5.44162V2.04393H77.7563C76.9032 4.66249 74.772 6.42831 72.3529 6.42831C69.9337 6.42831 67.8026 4.66249 66.9494 2.04393H65.4154C64.5627 4.66249 62.4321 6.42831 60.0124 6.42831C57.5928 6.42831 55.4616 4.66249 54.6085 2.04393H53.0749C52.2218 4.66249 50.0906 6.42831 47.6715 6.42831C45.2523 6.42831 43.1212 4.66249 42.268 2.04393H40.734C39.8813 4.66249 37.7507 6.42831 35.331 6.42831C32.9114 6.42831 30.7802 4.66249 29.9271 2.04393H28.3935C27.5404 4.66249 25.4092 6.42831 22.9901 6.42831C20.5709 6.42831 18.4398 4.66249 17.5866 2.04393H16.0526C15.1999 4.66249 13.0693 6.42831 10.6496 6.42831C8.22996 6.42831 6.09884 4.66249 5.24569 2.04393H1.99883V5.20492C4.80938 5.93087 6.83517 8.25496 6.83517 10.9032C6.83517 13.5514 4.80938 15.876 1.99883 16.6014V17.8432C4.80938 18.5687 6.83517 20.8933 6.83517 23.5415C6.83517 26.1897 4.80938 28.5148 1.99883 29.2398V30.4816C4.80938 31.2075 6.83517 33.5316 6.83517 36.1798C6.83517 38.828 4.80938 41.1526 1.99883 41.8781V43.1199C4.80938 43.8453 6.83517 46.1699 6.83517 48.8181C6.83517 51.4664 4.80938 53.7915 1.99883 54.5164V55.7582C4.80938 56.4842 6.83517 58.8082 6.83517 61.4565C6.83517 64.1047 4.80938 66.4293 1.99883 67.1547V68.3965C4.80938 69.122 6.83517 71.4466 6.83517 74.0948C6.83517 76.743 4.80938 79.0681 1.99883 79.793V82.9535H5.18878C6.00049 80.2654 8.19202 78.3917 10.6496 78.3917C13.1072 78.3917 15.2983 80.2654 16.11 82.9535H17.5302C18.3419 80.2654 20.533 78.3917 22.9906 78.3917C25.4482 78.3917 27.6392 80.2654 28.4509 82.9535H29.8707C30.6824 80.2654 32.8739 78.3917 35.3315 78.3917C37.7891 78.3917 39.9802 80.2654 40.7919 82.9535H42.2121C43.0238 80.2654 45.2149 78.3917 47.6725 78.3917C50.1301 78.3917 52.3211 80.2654 53.1328 82.9535H54.5526C55.3643 80.2654 57.5558 78.3917 60.0134 78.3917C62.471 78.3917 64.6621 80.2654 65.4738 82.9535H66.894C67.7057 80.2654 69.8968 78.3917 72.3544 78.3917C74.812 78.3917 77.003 80.2654 77.8147 82.9535L77.8132 82.955Z" fill="#231F20"/>
<path d="M70.7035 10.5479H12.296C11.1932 10.5479 10.2992 11.4634 10.2992 12.5928V72.4077C10.2992 73.5371 11.1932 74.4526 12.296 74.4526H70.7035C71.8063 74.4526 72.7003 73.5371 72.7003 72.4077V12.5928C72.7003 11.4634 71.8063 10.5479 70.7035 10.5479Z" fill="#A13A1E"/>
<path d="M70.7035 75.4746H12.296C10.6442 75.4746 9.30078 74.0989 9.30078 72.4072V12.5923C9.30078 10.9006 10.6442 9.5249 12.296 9.5249H70.7035C72.3554 9.5249 73.6988 10.9006 73.6988 12.5923V72.4072C73.6988 74.0989 72.3554 75.4746 70.7035 75.4746ZM12.296 11.5699C11.7454 11.5699 11.2976 12.0284 11.2976 12.5923V72.4072C11.2976 72.9711 11.7454 73.4297 12.296 73.4297H70.7035C71.2541 73.4297 71.7019 72.9711 71.7019 72.4072V12.5923C71.7019 12.0284 71.2541 11.5699 70.7035 11.5699H12.296Z" fill="#231F20"/>
<path d="M67.7651 67.7176C65.1403 72.2916 59.7314 73.1076 58.4184 72.0452C57.1055 70.9828 59.5631 68.3392 63.0107 63.8705C65.311 60.8884 63.104 52.5532 64.8522 49.016C65.6914 47.3181 67.8545 47.6704 68.45 48.1387C69.3636 48.8565 69.3431 49.6663 69.2877 50.6944C69.0646 54.8293 70.8977 62.2586 67.7651 67.7176Z" fill="#FEFAF0"/>
<path d="M60.0718 73.4844C59.1119 73.4844 58.3181 73.2676 57.7994 72.8479C57.3826 72.511 57.1315 72.0529 57.0736 71.5243C56.9078 70.0141 58.3565 68.1711 60.7572 65.1185C61.219 64.5321 61.7117 63.9048 62.2269 63.2366C63.2313 61.935 63.1799 58.9688 63.1305 56.1002C63.0801 53.1862 63.0326 50.4337 63.9617 48.5544C64.4065 47.6546 65.1598 47.0574 66.1417 46.8289C67.2984 46.559 68.483 46.8765 69.0581 47.3279C70.4129 48.3923 70.3416 49.7005 70.2851 50.7506C70.2272 51.8237 70.3211 53.2066 70.4204 54.6708C70.7025 58.8292 71.0544 64.004 68.6258 68.2355C67.1157 70.8668 64.4694 72.7732 61.5465 73.3351C61.0248 73.4353 60.5296 73.4844 60.0718 73.4844ZM59.0549 71.2549C59.2641 71.3893 59.9885 71.5544 61.1791 71.3254C62.0642 71.1552 65.0939 70.3551 66.9045 67.1997C69.0192 63.5147 68.6922 58.6897 68.4291 54.8129C68.3253 53.2833 68.2269 51.8385 68.2918 50.6382C68.3467 49.6167 68.3103 49.3176 67.843 48.9506C67.7137 48.8611 67.1097 48.6847 66.5391 48.8345C66.1697 48.9322 65.9096 49.1433 65.7438 49.4782C65.039 50.9045 65.0844 53.5277 65.1283 56.0644C65.1862 59.4407 65.2416 62.6298 63.7949 64.505C63.2758 65.1778 62.779 65.8102 62.3138 66.4012C60.7782 68.3536 59.042 70.5621 59.0559 71.2549H59.0549Z" fill="#231F20"/>
<path d="M21.0312 73.4654C21.0312 73.4823 21.0462 73.4956 21.0652 74.4526H61.4187C61.4372 73.4956 61.4527 73.4818 61.4527 73.4654V38.0064C61.4527 35.8986 61.4636 33.5162 60.613 31.0362C60.613 31.0362 60.4692 30.6405 60.265 30.0797C59.36 27.592 58.1898 25.1846 56.7731 22.8937L54.5162 19.245C54.267 18.7783 53.8103 18.493 53.3126 18.4015C52.4669 18.2461 51.6407 18.7522 51.3836 19.4863L49.4706 24.9458C49.4652 24.9607 49.4477 24.9678 49.4302 24.9658C46.0581 24.5491 44.1576 24.5859 41.2417 24.5859C38.3258 24.5859 36.7194 24.6836 33.0532 24.9658C33.0357 24.9673 33.0182 24.9612 33.0127 24.9458L31.0998 19.4863C30.8427 18.7522 30.0165 18.2466 29.1708 18.4015C28.6731 18.493 28.2163 18.7783 27.9672 19.245L25.7103 22.8937C24.2935 25.1841 23.1239 27.592 22.2183 30.0797C22.0142 30.6405 21.8704 31.0357 21.8704 31.0362C21.0197 33.5162 21.0307 35.8986 21.0307 38.0064V73.4654C21.0307 73.4823 21.0462 73.4956 21.0652 74.4526H61.4187C61.4372 73.4956 61.4527 73.4818 61.4527 73.4654" fill="#FEFAF0"/>
<path d="M62.3972 75.4746H20.0857L20.0662 74.4726C20.0543 73.8238 20.0448 73.6434 20.0393 73.5876L20.0323 73.4654V37.9247C20.0323 35.7616 20.0323 33.3097 20.9284 30.6963L21.2828 29.7219C22.2093 27.1738 23.4154 24.6918 24.8666 22.3462L27.1086 18.7221C27.492 18.0278 28.1774 17.5447 28.9946 17.3944C30.2925 17.1536 31.606 17.9056 32.0393 19.1402L33.7031 23.8896C36.8267 23.6529 38.4476 23.5619 41.2417 23.5619H41.8902C44.2759 23.5589 46.0591 23.5573 48.7897 23.86L50.4431 19.1402C50.8754 17.9056 52.1863 17.1561 53.4883 17.3944C54.3055 17.5442 54.9909 18.0273 55.3738 18.7221L57.6157 22.3462C59.0659 24.6908 60.272 27.1723 61.2001 29.7224L61.5475 30.6784C62.4506 33.3092 62.4501 35.7611 62.4501 37.9247L62.4421 73.5953C62.4376 73.6434 62.4286 73.8238 62.4161 74.4726L62.3972 75.4746ZM22.0306 73.4297H60.4528C60.4528 73.424 60.4528 73.4189 60.4537 73.4148V37.9247C60.4537 35.9252 60.4537 33.6579 59.671 31.3747L59.3295 30.4361C58.4499 28.0194 57.3057 25.6662 55.9294 23.4408L53.639 19.7348C53.5137 19.5002 53.2457 19.4276 53.1358 19.4076C52.7619 19.3355 52.414 19.5707 52.3231 19.8309L50.1361 26.0721L49.2924 25.9775C46.2547 25.6028 44.4256 25.6084 41.8922 25.6064H41.2417C38.3053 25.6064 36.6844 25.7102 33.1275 25.9837L32.3752 26.0414L32.0747 25.2966L30.1597 19.8309C30.0689 19.5707 29.7184 19.3355 29.347 19.4071C29.2367 19.427 28.9681 19.4996 28.8433 19.7343L28.8104 19.7916L26.5535 23.4403C25.1766 25.6662 24.033 28.0194 23.1538 30.4361L22.8059 31.3921C22.0286 33.6579 22.0291 35.9247 22.0291 37.9242V73.4143C22.0291 73.4189 22.0301 73.424 22.0301 73.4291L22.0306 73.4297Z" fill="#231F20"/>
<path d="M33.1535 34.8593C33.9191 34.8593 34.5398 34.2237 34.5398 33.4396C34.5398 32.6555 33.9191 32.0199 33.1535 32.0199C32.3878 32.0199 31.7672 32.6555 31.7672 33.4396C31.7672 34.2237 32.3878 34.8593 33.1535 34.8593Z" fill="#231F20"/>
<path d="M33.1535 35.8813C31.8385 35.8813 30.7687 34.7857 30.7687 33.4396C30.7687 32.0935 31.839 30.9979 33.1535 30.9979C34.4679 30.9979 35.5377 32.0935 35.5377 33.4396C35.5377 34.7857 34.4679 35.8813 33.1535 35.8813ZM33.1535 33.0424C32.9393 33.0424 32.7656 33.2208 32.7656 33.4391C32.7656 33.6574 32.9398 33.8358 33.1535 33.8358C33.3671 33.8358 33.5408 33.6574 33.5408 33.4391C33.5408 33.2208 33.3666 33.0424 33.1535 33.0424Z" fill="#231F20"/>
<path d="M49.1516 34.8593C49.9173 34.8593 50.5379 34.2237 50.5379 33.4396C50.5379 32.6555 49.9173 32.0199 49.1516 32.0199C48.386 32.0199 47.7653 32.6555 47.7653 33.4396C47.7653 34.2237 48.386 34.8593 49.1516 34.8593Z" fill="#231F20"/>
<path d="M49.1516 35.8813C47.8367 35.8813 46.7669 34.7857 46.7669 33.4396C46.7669 32.0935 47.8372 30.9979 49.1516 30.9979C50.466 30.9979 51.5359 32.0935 51.5359 33.4396C51.5359 34.7857 50.466 35.8813 49.1516 35.8813ZM49.1516 33.0424C48.9375 33.0424 48.7637 33.2208 48.7637 33.4391C48.7637 33.6574 48.938 33.8358 49.1516 33.8358C49.3653 33.8358 49.539 33.6574 49.539 33.4391C49.539 33.2208 49.3648 33.0424 49.1516 33.0424Z" fill="#231F20"/>
<path d="M41.5851 37.1757L42.5087 36.28C42.8361 35.962 42.6165 35.3976 42.1652 35.3976H40.3181C39.8668 35.3976 39.6472 35.962 39.9747 36.28L40.8982 37.1757C41.0909 37.3623 41.3929 37.3623 41.5851 37.1757Z" fill="black"/>
<path d="M41.2417 38.3377C40.8708 38.3377 40.5004 38.1982 40.2118 37.918L39.2883 37.0223C38.8405 36.5873 38.6982 35.9272 38.9269 35.3409C39.155 34.7545 39.7011 34.3751 40.3177 34.3751H42.1647C42.7812 34.3751 43.3274 34.7539 43.5555 35.3409C43.7842 35.9272 43.6424 36.5873 43.1946 37.0218L42.2706 37.918C41.982 38.1982 41.6121 38.3377 41.2417 38.3377Z" fill="#231F20"/>
<path d="M46.086 38.7503C45.6532 39.6414 44.7641 40.2595 43.7257 40.2595C42.268 40.2595 41.0864 39.0514 41.0819 37.5591C41.0814 37.5591 41.0809 37.5591 41.0804 37.5591C41.0759 39.0509 39.8943 40.2595 38.4366 40.2595C37.4487 40.2595 36.5975 39.6982 36.1437 38.8766C32.822 40.7293 30.5671 44.3366 30.5671 48.4828C30.5671 49.1837 30.638 49.8667 30.7608 50.5308C30.8112 50.5088 30.8591 50.4843 30.9105 50.4638C33.2074 49.5513 35.658 50.3646 36.3834 52.2802C37.0044 53.9203 36.1567 55.8344 34.4589 56.9243C36.303 58.48 38.6657 59.4151 41.2417 59.4151C43.8176 59.4151 46.1803 58.48 48.0244 56.9243C46.3266 55.8344 45.479 53.9208 46.1 52.2802C46.8253 50.3646 49.2754 49.5518 51.5728 50.4638C51.6242 50.4843 51.6721 50.5088 51.7226 50.5308C51.8454 49.8667 51.9163 49.1837 51.9163 48.4828C51.9163 44.2334 49.544 40.5591 46.086 38.7503Z" fill="#F1C166"/>
<path d="M41.2417 60.4375C38.5405 60.4375 35.9061 59.4698 33.8239 57.7137L32.7541 56.8113L33.9283 56.0578C35.2407 55.2158 35.8812 53.7822 35.4528 52.6498C34.9277 51.2629 33.0526 50.7092 31.2715 51.4167L30.01 51.9658L29.7798 50.7204C29.6401 49.9643 29.5687 49.2107 29.5687 48.4822C29.5687 44.1009 31.9055 40.0759 35.666 37.9778L36.5291 37.4973L37.0134 38.373C37.3119 38.9139 37.8441 39.236 38.4371 39.236C39.3417 39.236 40.08 38.4819 40.083 37.555L40.0865 36.5361H42.0769L42.0813 37.5555C42.0843 38.4819 42.8222 39.236 43.7267 39.236C44.3488 39.236 44.9109 38.875 45.1934 38.2933L45.6427 37.3684L46.5413 37.8383C50.473 39.895 52.9157 43.9736 52.9157 48.4817C52.9157 49.2102 52.8443 49.9633 52.7045 50.7199L52.4744 51.9653L51.2523 51.4346C50.3153 51.0604 49.3713 51.0134 48.5561 51.2833C47.8138 51.5297 47.2726 52.0149 47.032 52.6488C46.6032 53.7817 47.2437 55.2152 48.5561 56.0573L49.7302 56.8108L48.6604 57.7132C46.5777 59.4698 43.9439 60.437 41.2432 60.437L41.2417 60.4375ZM36.1028 56.8798C37.6344 57.8619 39.4201 58.3926 41.2417 58.3926C43.0633 58.3926 44.8485 57.8619 46.38 56.8798C45.0327 55.4826 44.5345 53.5859 45.1695 51.9101C45.6307 50.6918 46.6147 49.7782 47.9396 49.3391C48.8656 49.0308 49.8845 48.9858 50.8909 49.1959C50.9089 48.9551 50.9178 48.7169 50.9178 48.4827C50.9178 45.0416 49.2001 41.9021 46.381 40.0954C45.7041 40.8438 44.7526 41.2814 43.7257 41.2814C42.6859 41.2814 41.7454 40.8316 41.0809 40.1117C40.416 40.8316 39.4755 41.2814 38.4361 41.2814C37.4806 41.2814 36.5741 40.8888 35.9031 40.217C33.2079 42.0437 31.5655 45.1382 31.5655 48.4827C31.5655 48.7174 31.575 48.9562 31.5925 49.1964C34.0725 48.6811 36.5052 49.7716 37.3144 51.9106C37.9489 53.5854 37.4497 55.4821 36.1028 56.8798Z" fill="#231F20"/>
<path d="M41.2417 45.2793C41.9309 45.2793 42.4897 44.7071 42.4897 44.0012C42.4897 43.2954 41.9309 42.7231 41.2417 42.7231C40.5524 42.7231 39.9937 43.2954 39.9937 44.0012C39.9937 44.7071 40.5524 45.2793 41.2417 45.2793Z" fill="#231F20"/>
<path d="M46.8667 47.2348C47.556 47.2348 48.1148 46.6626 48.1148 45.9567C48.1148 45.2509 47.556 44.6786 46.8667 44.6786C46.1775 44.6786 45.6187 45.2509 45.6187 45.9567C45.6187 46.6626 46.1775 47.2348 46.8667 47.2348Z" fill="#231F20"/>
<path d="M42.9839 48.993C43.6732 48.993 44.2319 48.4207 44.2319 47.7149C44.2319 47.009 43.6732 46.4368 42.9839 46.4368C42.2947 46.4368 41.7359 47.009 41.7359 47.7149C41.7359 48.4207 42.2947 48.993 42.9839 48.993Z" fill="#231F20"/>
<path d="M36.0988 46.8596C36.7881 46.8596 37.3468 46.2874 37.3468 45.5815C37.3468 44.8756 36.7881 44.3034 36.0988 44.3034C35.4095 44.3034 34.8508 44.8756 34.8508 45.5815C34.8508 46.2874 35.4095 46.8596 36.0988 46.8596Z" fill="#231F20"/>
<path d="M41.9695 55.4683C42.6588 55.4683 43.2175 54.8961 43.2175 54.1902C43.2175 53.4843 42.6588 52.9121 41.9695 52.9121C41.2803 52.9121 40.7215 53.4843 40.7215 54.1902C40.7215 54.8961 41.2803 55.4683 41.9695 55.4683Z" fill="#231F20"/>
<path d="M39.4735 51.8595C40.1628 51.8595 40.7215 51.2873 40.7215 50.5814C40.7215 49.8755 40.1628 49.3033 39.4735 49.3033C38.7842 49.3033 38.2255 49.8755 38.2255 50.5814C38.2255 51.2873 38.7842 51.8595 39.4735 51.8595Z" fill="#231F20"/>
<path d="M58.391 37.7422C60.555 36.9937 62.7186 36.2447 64.8827 35.4963C65.4997 35.2826 65.97 34.6067 65.7543 33.9242C65.5556 33.2959 64.8812 32.8026 64.2192 33.0316C62.0552 33.7801 59.8916 34.529 57.7275 35.2775C57.1105 35.4912 56.6402 36.167 56.8559 36.8495C57.0546 37.4779 57.729 37.9712 58.391 37.7422Z" fill="#231F20"/>
<path d="M64.8827 43.3427C62.7186 42.5943 60.555 41.8453 58.391 41.0969C57.7719 40.8827 56.9997 41.3428 56.8559 41.9895C56.6986 42.6971 57.0646 43.3325 57.7275 43.5616C59.8916 44.31 62.0552 45.059 64.2192 45.8074C64.8383 46.0216 65.6105 45.5615 65.7543 44.9148C65.9115 44.2073 65.5456 43.5718 64.8827 43.3427Z" fill="#231F20"/>
<path d="M59.9745 40.6976C61.7821 40.6976 63.5897 40.6976 65.3974 40.6976C66.0503 40.6976 66.6753 40.1097 66.6454 39.4195C66.6154 38.7293 66.0973 38.1414 65.3974 38.1414C63.5897 38.1414 61.7821 38.1414 59.9745 38.1414C59.3215 38.1414 58.6965 38.7293 58.7264 39.4195C58.7564 40.1097 59.2746 40.6976 59.9745 40.6976Z" fill="#231F20"/>
<path d="M24.7558 35.2775C22.5917 34.5291 20.4281 33.7801 18.2641 33.0316C17.6451 32.8174 16.8728 33.2775 16.729 33.9243C16.5718 34.6318 16.9377 35.2673 17.6006 35.4963C19.7647 36.2448 21.9283 36.9937 24.0923 37.7422C24.7114 37.9564 25.4836 37.4963 25.6274 36.8496C25.7847 36.142 25.4187 35.5065 24.7558 35.2775Z" fill="#231F20"/>
<path d="M18.2641 45.8075C20.4282 45.059 22.5917 44.3101 24.7558 43.5616C25.3728 43.3479 25.8431 42.672 25.6274 41.9895C25.4287 41.3612 24.7543 40.8679 24.0923 41.0969C21.9283 41.8454 19.7647 42.5943 17.6006 43.3428C16.9836 43.5565 16.5134 44.2323 16.729 44.9148C16.9277 45.5432 17.6021 46.0365 18.2641 45.8075Z" fill="#231F20"/>
<path d="M22.5088 38.1414C20.7012 38.1414 18.8935 38.1414 17.0859 38.1414C16.4329 38.1414 15.8079 38.7293 15.8379 39.4195C15.8678 40.1097 16.386 40.6976 17.0859 40.6976C18.8935 40.6976 20.7012 40.6976 22.5088 40.6976C23.1618 40.6976 23.7868 40.1097 23.7568 39.4195C23.7269 38.7293 23.2087 38.1414 22.5088 38.1414Z" fill="#231F20"/>
</g>
<defs>
<clipPath id="clip0_885_1372">
<rect width="83" height="22" fill="white" transform="translate(0 85)"/>
</clipPath>
<clipPath id="clip1_885_1372">
<rect width="83" height="85" fill="white"/>
</clipPath>
</defs>
</svg>
