<svg width="83" height="22" viewBox="0 0 83 22" fill="none" xmlns="http://www.w3.org/2000/svg">
<g clip-path="url(#clip0_883_1131)">
<path d="M3.84107 10.7899C3.06214 10.7899 2.38547 10.6357 1.81104 10.3272C1.23618 10.0187 0.790769 9.57609 0.474812 8.99899C0.158417 8.4219 0 7.74032 0 6.95427C0 6.36731 0.0873268 5.83999 0.262858 5.37231C0.43839 4.90462 0.693788 4.50644 1.02993 4.17821C1.36607 3.84998 1.77199 3.59887 2.24943 3.42444C2.72644 3.25046 3.25742 3.16302 3.8415 3.16302C4.14342 3.16302 4.46683 3.20024 4.81263 3.27513C5.15799 3.35001 5.49676 3.47153 5.82764 3.64057C6.01239 3.75043 6.14184 3.88451 6.21469 4.04324C6.28797 4.20242 6.31474 4.36923 6.29499 4.54321C6.27525 4.71719 6.21469 4.87144 6.11244 5.00596C6.01019 5.14003 5.88118 5.22971 5.72539 5.27455C5.56961 5.3194 5.39452 5.29204 5.19968 5.1925C5.01449 5.09295 4.82229 5.01583 4.62306 4.96112C4.42339 4.90642 4.23601 4.87906 4.06092 4.87906C3.76866 4.87906 3.51063 4.92615 3.28682 5.02076C3.06258 5.11537 2.8752 5.24989 2.72469 5.42343C2.57373 5.59785 2.45656 5.81398 2.37406 6.07271C2.29112 6.33189 2.24987 6.6247 2.24987 6.95338C2.24987 7.60984 2.40829 8.12999 2.72469 8.51292C3.04108 8.89586 3.48649 9.08733 4.06092 9.08733C4.23601 9.08733 4.42076 9.06266 4.61604 9.01244C4.81044 8.96267 5.00528 8.8833 5.20012 8.77389C5.39496 8.67435 5.56742 8.64968 5.71881 8.69901C5.86977 8.74878 5.99615 8.84071 6.0984 8.97523C6.20065 9.1093 6.25638 9.264 6.26647 9.43798C6.27612 9.61241 6.24453 9.77876 6.17168 9.93795C6.0984 10.0971 5.96938 10.2213 5.78464 10.311C5.46341 10.4899 5.13473 10.6146 4.79859 10.6841C4.46245 10.7536 4.14342 10.7886 3.84194 10.7886L3.84107 10.7899Z" fill="#E7D8C8"/>
<path d="M10.6324 10.79C9.8631 10.79 9.19608 10.6357 8.63131 10.3272C8.06654 10.0187 7.62595 9.57882 7.30956 9.0062C6.99316 8.43449 6.83475 7.75516 6.83475 6.96911C6.83475 6.38215 6.92207 5.85483 7.09761 5.38714C7.2727 4.91991 7.52854 4.51904 7.86468 4.18587C8.20082 3.85271 8.60454 3.59891 9.07672 3.42493C9.5489 3.25095 10.0676 3.16351 10.6324 3.16351C11.4012 3.16351 12.0708 3.31776 12.6404 3.62627C13.21 3.93477 13.6528 4.3751 13.9697 4.94681C14.2861 5.51897 14.4445 6.19292 14.4445 6.96911C14.4445 7.55652 14.3541 8.08832 14.1742 8.56587C13.9938 9.04342 13.7384 9.44654 13.4071 9.77477C13.0762 10.103 12.6769 10.3541 12.2095 10.5285C11.7422 10.7025 11.2164 10.79 10.6324 10.79ZM10.6324 9.11831C10.9536 9.11831 11.2309 9.04163 11.4648 8.88693C11.6983 8.73268 11.8835 8.49637 12.0199 8.17801C12.1564 7.86009 12.2244 7.45697 12.2244 6.96911C12.2244 6.24315 12.0783 5.7082 11.786 5.36472C11.4938 5.02125 11.1094 4.84996 10.6324 4.84996C10.3208 4.84996 10.0457 4.92484 9.80693 5.07416C9.56821 5.22348 9.38346 5.4571 9.25181 5.77546C9.1206 6.09383 9.05478 6.49201 9.05478 6.96956C9.05478 7.70629 9.20091 8.2484 9.49317 8.59636C9.78543 8.94477 10.165 9.11875 10.6324 9.11875V9.11831Z" fill="#E7D8C8"/>
<path d="M18.5774 10.7899C17.9542 10.7899 17.4066 10.6384 16.9344 10.3348C16.4622 10.0312 16.0949 9.59089 15.8321 9.0138C15.5692 8.4367 15.438 7.75513 15.438 6.96908C15.438 6.18303 15.5692 5.50639 15.8321 4.93961C16.0949 4.37283 16.4622 3.93474 16.9344 3.62624C17.4066 3.31773 17.9542 3.16348 18.5774 3.16348C19.1421 3.16348 19.6437 3.30294 20.0817 3.5814C20.5205 3.8603 20.8128 4.22306 20.9584 4.67101H20.7974V1.13401C20.7974 0.756008 20.89 0.472168 21.0752 0.283391C21.2604 0.0946131 21.5329 0 21.8936 0C22.2433 0 22.5159 0.0946131 22.7111 0.283391C22.9055 0.472168 23.0034 0.756008 23.0034 1.13401V9.62587C23.0034 9.99401 22.9082 10.2752 22.7182 10.4689C22.5286 10.663 22.2631 10.7599 21.923 10.7599C21.5623 10.7599 21.2871 10.663 21.0976 10.4689C20.9071 10.2747 20.8132 9.99401 20.8132 9.62587V8.61113L20.9734 9.19316C20.8369 9.68057 20.5473 10.0689 20.1045 10.3572C19.6613 10.6455 19.1518 10.7899 18.5774 10.7899ZM19.2347 9.11828C19.556 9.11828 19.8337 9.0416 20.0668 8.8869C20.3006 8.73265 20.4858 8.49634 20.6223 8.17798C20.7588 7.86006 20.8272 7.45694 20.8272 6.96908C20.8272 6.24312 20.6807 5.70817 20.3884 5.36469C20.097 5.02122 19.7122 4.84993 19.2347 4.84993C18.9227 4.84993 18.6485 4.92481 18.4093 5.07413C18.171 5.22345 17.9858 5.45707 17.8546 5.77543C17.7225 6.0938 17.6576 6.49198 17.6576 6.96953C17.6576 7.70626 17.8033 8.24837 18.0955 8.59633C18.3878 8.94474 18.7674 9.11872 19.2347 9.11872V9.11828Z" fill="#E7D8C8"/>
<path d="M28.4212 10.79C27.5742 10.79 26.8462 10.6357 26.2376 10.3272C25.6289 10.0187 25.1616 9.57882 24.8355 9.0062C24.5095 8.43449 24.3466 7.75516 24.3466 6.96911C24.3466 6.2131 24.5046 5.55395 24.821 4.99165C25.1374 4.4298 25.5736 3.98409 26.1283 3.65586C26.6834 3.32763 27.3109 3.16351 28.0122 3.16351C28.5476 3.16351 29.0224 3.2505 29.4362 3.42493C29.8496 3.59891 30.2076 3.84778 30.5096 4.17108C30.8115 4.49437 31.0401 4.88762 31.1959 5.34993C31.3512 5.81268 31.4293 6.32745 31.4293 6.89423C31.4293 7.08345 31.371 7.22515 31.2542 7.31976C31.1371 7.41437 30.9673 7.46146 30.743 7.46146H26.1717V6.2974H29.8377L29.6043 6.50636C29.6043 6.09831 29.5459 5.75797 29.4292 5.484C29.312 5.21047 29.1444 5.00152 28.9254 4.85713C28.7064 4.71319 28.4361 4.641 28.1149 4.641C27.7546 4.641 27.4474 4.72575 27.1946 4.8948C26.941 5.06385 26.7466 5.31047 26.6101 5.63332C26.4737 5.95662 26.4056 6.34224 26.4056 6.78975V6.90947C26.4056 7.66548 26.5759 8.22284 26.9169 8.58112C27.2574 8.93939 27.7735 9.11831 28.4651 9.11831C28.6985 9.11831 28.964 9.08871 29.2607 9.02907C29.5577 8.96944 29.8421 8.87482 30.115 8.74523C30.3485 8.63582 30.5477 8.6013 30.7136 8.64076C30.879 8.68066 31.0133 8.76272 31.1151 8.88693C31.2174 9.01159 31.2731 9.15821 31.2832 9.32726C31.2929 9.49631 31.256 9.66312 31.1739 9.82723C31.091 9.99135 30.9523 10.1281 30.7575 10.238C30.417 10.4371 30.0369 10.5788 29.6183 10.6631C29.1997 10.7474 28.8008 10.79 28.4212 10.79Z" fill="#E7D8C8"/>
<path d="M36.206 10.7899C35.427 10.7899 34.7504 10.6357 34.1759 10.3272C33.6011 10.0187 33.1557 9.57609 32.8393 8.99899C32.5229 8.4219 32.3649 7.74032 32.3649 6.95427C32.3649 6.36731 32.4522 5.83999 32.6278 5.37231C32.8033 4.90462 33.0587 4.50644 33.3944 4.17821C33.7305 3.84998 34.1369 3.59887 34.6139 3.42444C35.0909 3.25002 35.6219 3.16302 36.206 3.16302C36.5079 3.16302 36.8317 3.20024 37.1771 3.27513C37.5229 3.35001 37.8612 3.47153 38.1921 3.64057C38.3768 3.75043 38.5063 3.88451 38.5791 4.04324C38.6524 4.20242 38.6792 4.36923 38.6599 4.54321C38.6401 4.71719 38.5791 4.87144 38.4773 5.00596C38.3751 5.14003 38.2461 5.22971 38.0899 5.27455C37.9345 5.3194 37.759 5.29204 37.5646 5.1925C37.3794 5.09295 37.1872 5.01583 36.9875 4.96112C36.7879 4.90642 36.6005 4.87906 36.4254 4.87906C36.1336 4.87906 35.8751 4.92615 35.6513 5.02076C35.427 5.11537 35.2397 5.24989 35.0891 5.42343C34.9377 5.59785 34.8215 5.81398 34.7385 6.07271C34.656 6.33189 34.6143 6.6247 34.6143 6.95338C34.6143 7.60984 34.7723 8.12999 35.0891 8.51292C35.4055 8.89586 35.8505 9.08733 36.4254 9.08733C36.6005 9.08733 36.7857 9.06266 36.9805 9.01244C37.1753 8.96267 37.3702 8.8833 37.565 8.77389C37.7594 8.67435 37.9323 8.64968 38.0833 8.69901C38.2342 8.74878 38.3611 8.84071 38.4633 8.97523C38.5651 9.1093 38.6213 9.264 38.6309 9.43798C38.6406 9.61241 38.609 9.77876 38.5361 9.93795C38.4633 10.0971 38.3338 10.2213 38.1491 10.311C37.8279 10.4899 37.4992 10.6146 37.163 10.6841C36.8269 10.7536 36.5083 10.7886 36.2064 10.7886L36.206 10.7899Z" fill="#E7D8C8"/>
<path d="M42.106 10.7899C41.561 10.7899 41.084 10.6877 40.6746 10.4837C40.2656 10.2797 39.9443 10.0012 39.7109 9.64785C39.4774 9.29496 39.3603 8.8896 39.3603 8.43178C39.3603 7.8946 39.4967 7.47175 39.7692 7.16325C40.0418 6.85475 40.4823 6.631 41.0914 6.49154C41.6997 6.35209 42.5102 6.28259 43.523 6.28259H44.2971V7.44664H43.5379C43.0315 7.44664 42.63 7.47444 42.3329 7.5287C42.0358 7.58385 41.8195 7.67802 41.6834 7.81209C41.5465 7.94661 41.4789 8.12328 41.4789 8.3421C41.4789 8.6107 41.5737 8.83445 41.7633 9.01381C41.9529 9.19317 42.2236 9.2824 42.5742 9.2824C42.8568 9.2824 43.1096 9.21783 43.3334 9.08824C43.5572 8.9591 43.7323 8.77974 43.8591 8.55106C43.9855 8.32237 44.0491 8.04885 44.0491 7.73003V6.02879C44.0491 5.59115 43.9517 5.28041 43.7569 5.09611C43.5625 4.91227 43.2263 4.8199 42.7493 4.8199C42.4961 4.8199 42.2162 4.84949 41.9094 4.90958C41.6027 4.96921 41.2643 5.07862 40.8944 5.23781C40.6706 5.32749 40.4784 5.34767 40.3178 5.29744C40.1572 5.24767 40.0334 5.15082 39.9452 5.00643C39.8579 4.86249 39.814 4.70062 39.814 4.52126C39.814 4.3419 39.8623 4.1733 39.9597 4.01367C40.0571 3.85493 40.223 3.73521 40.4565 3.65539C40.9045 3.47648 41.3302 3.34958 41.7343 3.2747C42.1385 3.19982 42.5062 3.1626 42.8371 3.1626C43.5871 3.1626 44.2076 3.2747 44.6995 3.49845C45.191 3.7222 45.5561 4.06792 45.7948 4.53561C46.0331 5.00329 46.1524 5.59518 46.1524 6.31128V9.62453C46.1524 9.99267 46.062 10.2738 45.8821 10.4675C45.7018 10.6617 45.4516 10.7585 45.13 10.7585C44.7987 10.7585 44.5433 10.6617 44.3633 10.4675C44.183 10.2734 44.093 9.99267 44.093 9.62453V9.07255L44.1953 9.17703C44.1365 9.50526 44.0127 9.7891 43.8227 10.0276C43.6327 10.2666 43.394 10.4532 43.107 10.5873C42.8195 10.7218 42.486 10.789 42.1064 10.789L42.106 10.7899Z" fill="#E7D8C8"/>
<path d="M36.4385 22C35.6596 22 34.9829 21.8457 34.4085 21.5372C33.8337 21.2287 33.3882 20.7862 33.0718 20.2091C32.7555 19.632 32.5975 18.9504 32.5975 18.1644C32.5975 17.5774 32.6848 17.0501 32.8603 16.5824C33.0359 16.1147 33.2913 15.7165 33.627 15.3883C33.9631 15.0601 34.3695 14.809 34.8465 14.6345C35.3235 14.4601 35.8545 14.3731 36.4385 14.3731C36.7405 14.3731 37.0643 14.4103 37.4097 14.4852C37.7555 14.5601 38.0938 14.6816 38.4247 14.8507C38.6094 14.9605 38.7389 15.0946 38.8117 15.2533C38.885 15.4125 38.9118 15.5793 38.8925 15.7533C38.8727 15.9273 38.8117 16.0815 38.7099 16.216C38.6077 16.3501 38.4787 16.4398 38.3224 16.4846C38.1671 16.5295 37.9916 16.5021 37.7972 16.4026C37.612 16.303 37.4198 16.2259 37.2201 16.1712C37.0204 16.1165 36.833 16.0891 36.658 16.0891C36.3661 16.0891 36.1077 16.1362 35.8839 16.2308C35.6596 16.3255 35.4722 16.46 35.3217 16.6335C35.1703 16.8079 35.054 17.0241 34.9711 17.2828C34.8886 17.542 34.8469 17.8348 34.8469 18.1635C34.8469 18.8199 35.0049 19.3401 35.3217 19.723C35.6381 20.1059 36.0831 20.2974 36.658 20.2974C36.833 20.2974 37.0182 20.2727 37.2131 20.2225C37.4079 20.1728 37.6028 20.0934 37.7976 19.984C37.992 19.8844 38.1649 19.8598 38.3158 19.9091C38.4668 19.9589 38.5936 20.0508 38.6959 20.1853C38.7977 20.3194 38.8538 20.4741 38.8635 20.6481C38.8732 20.8225 38.8416 20.9888 38.7687 21.148C38.6959 21.3072 38.5664 21.4314 38.3817 21.5211C38.0604 21.7 37.7318 21.8247 37.3956 21.8942C37.0595 21.9637 36.7409 21.9987 36.439 21.9987L36.4385 22Z" fill="#E7D8C8"/>
<path d="M43.2303 22C42.461 22 41.794 21.8457 41.2292 21.5372C40.6645 21.2287 40.2234 20.7888 39.9071 20.2162C39.5907 19.6445 39.4327 18.9652 39.4327 18.1791C39.4327 17.5922 39.52 17.0649 39.6955 16.5972C39.8706 16.1299 40.1265 15.7291 40.4622 15.3959C40.7983 15.0627 41.2025 14.8089 41.6747 14.635C42.1468 14.461 42.6655 14.3735 43.2303 14.3735C43.9991 14.3735 44.6688 14.5278 45.2384 14.8363C45.808 15.1448 46.2512 15.5851 46.5671 16.1568C46.8835 16.729 47.042 17.4029 47.042 18.1791C47.042 18.7665 46.952 19.2983 46.7716 19.7759C46.5917 20.2534 46.3359 20.6566 46.005 20.9848C45.6741 21.313 45.2748 21.5641 44.8074 21.7386C44.3401 21.9125 43.8144 22 43.2303 22ZM43.2303 20.3283C43.5515 20.3283 43.8289 20.2517 44.0623 20.097C44.2962 19.9427 44.481 19.7064 44.6174 19.388C44.7539 19.0701 44.8224 18.667 44.8224 18.1791C44.8224 17.4532 44.6762 16.9182 44.384 16.5747C44.0922 16.2313 43.7073 16.06 43.2303 16.06C42.9183 16.06 42.6436 16.1349 42.4049 16.2842C42.1661 16.4335 41.9814 16.6671 41.8497 16.9855C41.7181 17.3038 41.6527 17.702 41.6527 18.1796C41.6527 18.9163 41.7988 19.4584 42.0907 19.8064C42.3829 20.1548 42.7625 20.3283 43.2303 20.3283Z" fill="#E7D8C8"/>
<path d="M51.8327 22C51.0634 22 50.3964 21.8457 49.8316 21.5372C49.2668 21.2287 48.8258 20.7888 48.5094 20.2162C48.193 19.6445 48.035 18.9652 48.035 18.1791C48.035 17.5922 48.1224 17.0649 48.2979 16.5972C48.473 16.1299 48.7288 15.7291 49.0645 15.3959C49.4007 15.0627 49.8048 14.8089 50.277 14.635C50.7492 14.461 51.2679 14.3735 51.8327 14.3735C52.6015 14.3735 53.2711 14.5278 53.8407 14.8363C54.4103 15.1448 54.8536 15.5851 55.1695 16.1568C55.4859 16.729 55.6443 17.4029 55.6443 18.1791C55.6443 18.7665 55.5544 19.2983 55.374 19.7759C55.1941 20.2534 54.9382 20.6566 54.6074 20.9848C54.2765 21.313 53.8772 21.5641 53.4098 21.7386C52.9425 21.9125 52.4167 22 51.8327 22ZM51.8327 20.3283C52.1539 20.3283 52.4312 20.2517 52.6647 20.097C52.8986 19.9427 53.0833 19.7064 53.2198 19.388C53.3563 19.0701 53.4247 18.667 53.4247 18.1791C53.4247 17.4532 53.2786 16.9182 52.9863 16.5747C52.6945 16.2313 52.3097 16.06 51.8327 16.06C51.5206 16.06 51.2459 16.1349 51.0072 16.2842C50.7685 16.4335 50.5838 16.6671 50.4521 16.9855C50.3205 17.3038 50.2551 17.702 50.2551 18.1796C50.2551 18.9163 50.4012 19.4584 50.693 19.8064C50.9853 20.1548 51.3649 20.3283 51.8327 20.3283Z" fill="#E7D8C8"/>
<path d="M58.0833 21.97C57.7424 21.97 57.4747 21.8731 57.2798 21.6789C57.0854 21.4848 56.988 21.2041 56.988 20.836V12.3441C56.988 11.9661 57.0854 11.6823 57.2798 11.4935C57.4747 11.3047 57.7424 11.2101 58.0833 11.2101C58.4432 11.2101 58.7183 11.3047 58.9083 11.4935C59.0983 11.6823 59.1931 11.9661 59.1931 12.3441V17.5675H59.2221L61.3399 15.1645C61.5536 14.9058 61.7489 14.7148 61.9239 14.5901C62.099 14.4659 62.3426 14.4036 62.6542 14.4036C62.9657 14.4036 63.1992 14.4834 63.3554 14.6426C63.5107 14.8018 63.5915 14.9933 63.5963 15.217C63.6016 15.4408 63.5064 15.6721 63.312 15.9111L61.077 18.4334V17.5828L63.5599 20.5077C63.7446 20.7467 63.825 20.9803 63.8008 21.209C63.7762 21.4382 63.6744 21.622 63.4945 21.761C63.3142 21.9005 63.093 21.97 62.8297 21.97C62.4984 21.97 62.2333 21.9076 62.0341 21.7834C61.8344 21.6592 61.6321 21.4678 61.4276 21.209L59.2225 18.6868H59.1936V20.8355C59.1936 21.592 58.8232 21.9695 58.0838 21.9695L58.0833 21.97Z" fill="#E7D8C8"/>
<path d="M66.2333 13.1947C65.8339 13.1947 65.5272 13.0951 65.313 12.896C65.0989 12.697 64.9918 12.4136 64.9918 12.0454C64.9918 11.6871 65.0989 11.4109 65.313 11.2172C65.5268 11.0231 65.8339 10.9262 66.2333 10.9262C66.6423 10.9262 66.956 11.0235 67.175 11.2172C67.394 11.4109 67.5037 11.6871 67.5037 12.0454C67.5037 12.4136 67.394 12.697 67.175 12.896C66.956 13.0951 66.6418 13.1947 66.2333 13.1947ZM66.2333 21.9699C65.8923 21.9699 65.6246 21.8628 65.4298 21.6493C65.2354 21.4354 65.138 21.1346 65.138 20.7462V15.6273C65.138 15.2295 65.2354 14.9287 65.4298 14.7246C65.6246 14.5206 65.8923 14.4184 66.2333 14.4184C66.5931 14.4184 66.8683 14.5206 67.0583 14.7246C67.2483 14.9287 67.3431 15.2295 67.3431 15.6273V20.7462C67.3431 21.1341 67.2505 21.4354 67.0653 21.6493C66.8805 21.8632 66.6028 21.9699 66.2333 21.9699Z" fill="#E7D8C8"/>
<path d="M72.7758 22C71.9288 22 71.2008 21.8457 70.5921 21.5372C69.9835 21.2287 69.5161 20.7888 69.1901 20.2162C68.864 19.6445 68.7012 18.9652 68.7012 18.1791C68.7012 17.4231 68.8592 16.764 69.1756 16.2017C69.492 15.6398 69.9282 15.1941 70.4829 14.8659C71.038 14.5377 71.6655 14.3735 72.3668 14.3735C72.9021 14.3735 73.377 14.4605 73.7908 14.635C74.2041 14.8089 74.5622 15.0578 74.8641 15.3811C75.1661 15.7044 75.3947 16.0976 75.5505 16.5599C75.7058 17.0227 75.7839 17.5375 75.7839 18.1042C75.7839 18.2935 75.7256 18.4352 75.6088 18.5298C75.4917 18.6244 75.3218 18.6715 75.0976 18.6715H70.5263V17.5074H74.1923L73.9588 17.7164C73.9588 17.3083 73.9005 16.968 73.7837 16.694C73.6666 16.4205 73.4989 16.2115 73.28 16.0672C73.061 15.9232 72.7907 15.851 72.4695 15.851C72.1092 15.851 71.802 15.9358 71.5492 16.1048C71.2956 16.2739 71.1012 16.5205 70.9647 16.8433C70.8282 17.1666 70.7602 17.5523 70.7602 17.9998V18.1195C70.7602 18.8755 70.9305 19.4329 71.2714 19.7911C71.612 20.1494 72.128 20.3283 72.8196 20.3283C73.0531 20.3283 73.3186 20.2987 73.6152 20.2391C73.9123 20.1795 74.1967 20.0848 74.4696 19.9553C74.7031 19.8458 74.9023 19.8113 75.0682 19.8508C75.2336 19.8907 75.3679 19.9727 75.4697 20.097C75.572 20.2216 75.6277 20.3682 75.6378 20.5373C75.6475 20.7063 75.6106 20.8731 75.5285 21.0373C75.4456 21.2014 75.3069 21.3381 75.1121 21.448C74.7715 21.6471 74.3915 21.7888 73.9729 21.8731C73.5542 21.9574 73.1549 22 72.7753 22H72.7758Z" fill="#E7D8C8"/>
<path d="M79.8159 22C79.3972 22 78.9589 21.9628 78.5016 21.8879C78.0435 21.8135 77.6345 21.6816 77.2746 21.4924C77.0701 21.3929 76.9262 21.2664 76.8437 21.1117C76.7612 20.9575 76.7248 20.7983 76.7344 20.6342C76.7436 20.4701 76.795 20.3257 76.888 20.2015C76.9802 20.0773 77.1017 19.9925 77.2531 19.9477C77.4041 19.9028 77.5722 19.9203 77.7569 20.0001C78.1558 20.1692 78.5235 20.2889 78.8597 20.3584C79.1954 20.4279 79.5192 20.4629 79.8308 20.4629C80.2398 20.4629 80.5413 20.3934 80.7361 20.2539C80.9305 20.1145 81.0284 19.9356 81.0284 19.7167C81.0284 19.528 80.9647 19.3863 80.8384 19.2912C80.7115 19.197 80.5263 19.1249 80.2832 19.0751L78.735 18.7917C78.1409 18.6724 77.681 18.4437 77.3545 18.1052C77.0284 17.7671 76.8656 17.3294 76.8656 16.7918C76.8656 16.2847 77.0017 15.8515 77.2746 15.4932C77.5471 15.135 77.9241 14.8587 78.4064 14.665C78.8886 14.4713 79.4363 14.374 80.0493 14.374C80.4877 14.374 80.8893 14.4139 81.2544 14.4933C81.6195 14.5731 81.9771 14.7076 82.3277 14.8964C82.5028 14.9762 82.6275 15.0906 82.7003 15.2394C82.7731 15.3888 82.7951 15.543 82.7657 15.7022C82.7367 15.8614 82.6757 16.0031 82.5831 16.1277C82.4905 16.2524 82.369 16.3367 82.218 16.3815C82.0671 16.4264 81.8893 16.4039 81.6849 16.3143C81.3733 16.1851 81.0863 16.0883 80.8234 16.0233C80.5601 15.9587 80.317 15.9264 80.0928 15.9264C79.6447 15.9264 79.3209 15.9959 79.1217 16.1354C78.922 16.2748 78.8219 16.4537 78.8219 16.6725C78.8219 16.8416 78.8807 16.9837 78.997 17.0976C79.1142 17.212 79.2893 17.2895 79.5227 17.329L81.0709 17.5976C81.6941 17.7169 82.1711 17.9384 82.5024 18.2617C82.8333 18.585 82.9991 19.0204 82.9991 19.5674C82.9991 20.3436 82.7091 20.9431 82.1303 21.366C81.551 21.7888 80.7791 22.0005 79.8154 22.0005L79.8159 22Z" fill="#E7D8C8"/>
<path d="M53.7631 1.50393C53.57 1.47344 53.3729 1.51514 53.2075 1.62141C53.0425 1.72813 52.9205 1.8918 52.8648 2.08327C52.7739 2.44154 52.5694 2.75901 52.2833 2.98591C51.9968 3.2128 51.6453 3.33611 51.2828 3.33656H50.5895C50.5671 3.33656 50.546 3.32759 50.5306 3.31189C50.5153 3.2962 50.5065 3.27468 50.5065 3.25226V2.19268C50.5065 1.81647 50.4117 1.53398 50.2222 1.34565C50.0326 1.15732 49.7579 1.0627 49.3972 1.06226C49.0478 1.06226 48.7788 1.15642 48.5893 1.3452C48.3997 1.53353 48.3058 1.81647 48.3075 2.19313V3.33745H47.6673C47.4053 3.33745 47.1991 3.40606 47.049 3.54372C46.8993 3.68138 46.8239 3.8845 46.8234 4.15355C46.8234 4.42079 46.8989 4.62751 47.049 4.77279C47.1995 4.91807 47.4058 4.98982 47.6673 4.98802H48.3075V7.79817C48.3075 8.46225 48.4142 9.01289 48.6274 9.44964C48.8403 9.88548 49.1922 10.2343 49.6249 10.4384C50.0738 10.6621 50.6351 10.7738 51.3083 10.7733C51.4939 10.7693 51.6786 10.7522 51.8612 10.7209C52.038 10.6957 52.2131 10.6585 52.3851 10.6092C52.4773 10.5828 52.562 10.5357 52.634 10.4715C52.7055 10.4074 52.7625 10.3272 52.7998 10.2375C52.8771 10.0339 52.9144 9.81643 52.9091 9.59806C52.9091 9.28059 52.8643 9.07432 52.7744 8.97881C52.7305 8.93263 52.6765 8.89765 52.6177 8.87568C52.5585 8.85371 52.4948 8.84564 52.4325 8.85236C52.3219 8.8555 52.2122 8.8703 52.1052 8.8972C51.9687 8.92725 51.8296 8.94249 51.6905 8.94204C51.2731 8.94204 50.9725 8.84026 50.7878 8.63713C50.6035 8.434 50.5113 8.12416 50.5118 7.70759V5.12658C50.5118 5.09026 50.5258 5.05484 50.5513 5.02928C50.5767 5.00327 50.611 4.98892 50.6465 4.98892H50.9111C51.7861 4.99654 52.6405 4.7154 53.3471 4.18807C53.8618 3.79393 54.2423 3.3092 54.3428 2.84152L54.4204 2.52898C54.5214 2.05502 54.2282 1.57882 53.7631 1.50393Z" fill="#E7D8C8"/>
</g>
<defs>
<clipPath id="clip0_883_1131">
<rect width="83" height="22" fill="white"/>
</clipPath>
</defs>
</svg>
